<svg width="32" height="33" viewBox="0 0 32 33" fill="none" xmlns="http://www.w3.org/2000/svg">
<path d="M19.2003 0.820312H12.8003C6.56031 2.10031 1.60031 7.00698 0.320312 13.3003V19.7003C1.60031 25.9936 6.56031 30.9003 12.8003 32.1803H19.2003C25.4936 30.9003 30.4003 25.9403 31.6803 19.7003V13.3003C30.4003 7.00698 25.4403 2.10031 19.2003 0.820312Z" fill="white"/>
<path d="M31.5621 20.2333C31.8539 19.0103 32.0008 17.7573 32 16.5C32 15.2147 31.8485 13.9645 31.5621 12.7667H19.7333V0.93787C18.5103 0.646124 17.2573 0.49916 16 0.500004C14.7147 0.500004 13.4645 0.65147 12.2667 0.93787V12.7667H0.43787C0.146124 13.9897 -0.000840396 15.2427 3.61466e-06 16.5C3.61466e-06 17.7853 0.15147 19.0355 0.43787 20.2333H12.2667V32.0621C13.4897 32.3539 14.7427 32.5008 16 32.5C17.2853 32.5 18.5355 32.3485 19.7333 32.0621V20.2333H31.5621Z" fill="#CE1124"/>
</svg>
