<svg width="14" height="14" viewBox="0 0 14 14" fill="none" xmlns="http://www.w3.org/2000/svg">
<g clip-path="url(#clip0_6_64750)">
<path d="M12.2144 1.82954C10.885 0.50018 8.7422 0.50018 7.43268 1.82954C6.34142 2.9208 6.16284 4.56762 6.83744 5.8573L1.9962 10.7581L1.30176 12.4247L1.61922 12.7422L2.86921 12.6231L8.18664 7.22634C9.47632 7.94062 11.1231 7.74221 12.1946 6.65094C13.5438 5.32159 13.5438 3.1589 12.2144 1.82954ZM11.262 4.25016C10.8652 4.64699 10.2104 4.64699 9.81362 4.25016C9.4168 3.85334 9.4168 3.19858 9.81362 2.78191C10.2104 2.38509 10.8652 2.38509 11.262 2.78191C11.6787 3.17874 11.6787 3.8335 11.262 4.25016Z" fill="#EDA454"/>
<path d="M4.03288 11.8468L4.31065 11.5492V11.1524L2.86225 12.6206L3.73526 12.5214L4.03288 12.2238V11.8468ZM6.07652 9.76347L6.35429 9.46585V9.06903L4.60827 10.8547H5.00509L5.28287 10.5571H5.67969L6.07652 10.1603V9.76347ZM6.94953 6.70793C7.04873 6.60872 6.98921 6.56904 6.94953 6.50952C6.89 6.44999 6.87016 6.39047 6.77096 6.50952L2.46542 10.8547C2.36622 10.9539 2.42574 10.9936 2.46542 11.0531C2.52495 11.1127 2.54479 11.1722 2.64399 11.0531L6.94953 6.70793ZM7.54476 7.30316C7.64397 7.20396 7.58445 7.16427 7.54476 7.10475C7.48524 7.04523 7.4654 6.9857 7.36619 7.10475L3.04082 11.45C2.94161 11.5492 3.00114 11.5889 3.04082 11.6484C3.10034 11.7079 3.12018 11.7674 3.21939 11.6484L7.54476 7.30316ZM12.009 2.02541C10.7987 0.815098 8.83444 0.815098 7.62413 2.02541C6.71143 2.9381 6.49318 4.2873 6.94953 5.41825C6.53286 4.34683 6.77096 3.09683 7.62413 2.24366C8.77492 1.07303 10.6598 1.07303 11.8106 2.22382C12.9614 3.39445 12.9614 5.27936 11.8106 6.43015C10.9574 7.28332 9.70745 7.50157 8.65587 7.10475C9.78682 7.5611 11.1162 7.34284 12.0289 6.43015C13.2193 5.21984 13.2193 3.23572 12.009 2.02541Z" fill="#CC7F2B"/>
</g>
<defs>
<clipPath id="clip0_6_64750">
<rect width="12.6983" height="12.6983" fill="white" transform="translate(0.90332 0.437988)"/>
</clipPath>
</defs>
</svg>
