<svg width="21" height="20" viewBox="0 0 21 20" fill="none" xmlns="http://www.w3.org/2000/svg">
<g clip-path="url(#clip0_6_64392)">
<path d="M20.6865 17.293L16.792 13.3984C16.6162 13.2227 16.3779 13.125 16.1279 13.125H15.4912C16.5693 11.7461 17.21 10.0117 17.21 8.125C17.21 3.63672 13.5732 0 9.08496 0C4.59668 0 0.959961 3.63672 0.959961 8.125C0.959961 12.6133 4.59668 16.25 9.08496 16.25C10.9717 16.25 12.7061 15.6094 14.085 14.5312V15.168C14.085 15.418 14.1826 15.6562 14.3584 15.832L18.2529 19.7266C18.6201 20.0938 19.2139 20.0938 19.5771 19.7266L20.6826 18.6211C21.0498 18.2539 21.0498 17.6602 20.6865 17.293ZM9.08496 13.125C6.32324 13.125 4.08496 10.8906 4.08496 8.125C4.08496 5.36328 6.31934 3.125 9.08496 3.125C11.8467 3.125 14.085 5.35938 14.085 8.125C14.085 10.8867 11.8506 13.125 9.08496 13.125Z" fill="white"/>
</g>
<defs>
<clipPath id="clip0_6_64392">
<rect width="20" height="20" fill="white" transform="translate(0.959961)"/>
</clipPath>
</defs>
</svg>
