<svg width="11" height="10" viewBox="0 0 11 10" fill="none" xmlns="http://www.w3.org/2000/svg">
<path d="M8.14126 1.644C7.46409 1.08037 6.62473 0.711373 5.69616 0.626221V1.44125C6.39766 1.51829 7.03833 1.79808 7.56546 2.21979L8.14126 1.644ZM4.88519 1.44125V0.626221C3.95662 0.707318 3.11726 1.08037 2.4401 1.644L3.01589 2.21979C3.55225 1.78775 4.20072 1.51767 4.88519 1.44125ZM2.44415 2.79153L1.86836 2.21573C1.30473 2.8929 0.935738 3.73226 0.850586 4.66082H1.66562C1.74266 3.95933 2.02245 3.31866 2.44415 2.79153ZM8.91574 4.66082H9.73077C9.64562 3.73226 9.27662 2.8929 8.71299 2.21573L8.1372 2.79153C8.56924 3.32788 8.83932 3.97635 8.91574 4.66082ZM3.26324 5.06631L4.65812 5.69887L5.29068 7.09375L5.92324 5.69887L7.31812 5.06631L5.92324 4.43375L5.29068 3.03887L4.65812 4.43375L3.26324 5.06631Z" fill="url(#paint0_linear_4263_16033)"/>
<path d="M5.29044 8.71591C4.69162 8.71579 4.10211 8.56764 3.57436 8.28467C3.04662 8.0017 2.597 7.59266 2.2655 7.09396H3.263V6.28299H0.830078V8.71591H1.64105V7.62109C2.44797 8.77268 3.77797 9.52689 5.29044 9.52689C7.26517 9.52689 8.93983 8.24149 9.52374 6.4614L8.72898 6.27893C8.23023 7.69408 6.87996 8.71591 5.29044 8.71591Z" fill="url(#paint1_linear_4263_16033)"/>
<line x1="0.911133" y1="9.24399" x2="8.98153" y2="1.17359" stroke="url(#paint2_linear_4263_16033)" stroke-width="0.973171" stroke-linecap="round"/>
<defs>
<linearGradient id="paint0_linear_4263_16033" x1="9.33772" y1="6.83611" x2="1.72613" y2="6.83611" gradientUnits="userSpaceOnUse">
<stop stop-color="#F6655A"/>
<stop offset="1" stop-color="#9B51E0"/>
</linearGradient>
<linearGradient id="paint1_linear_4263_16033" x1="9.13894" y1="9.3975" x2="1.68723" y2="9.3975" gradientUnits="userSpaceOnUse">
<stop stop-color="#F6655A"/>
<stop offset="1" stop-color="#9B51E0"/>
</linearGradient>
<linearGradient id="paint2_linear_4263_16033" x1="9.96094" y1="2.2402" x2="2.45362" y2="9.74751" gradientUnits="userSpaceOnUse">
<stop stop-color="#F6655A"/>
<stop offset="1" stop-color="#9B51E0"/>
</linearGradient>
</defs>
</svg>
