<svg width="25" height="25" viewBox="0 0 25 25" fill="none" xmlns="http://www.w3.org/2000/svg">
<g clip-path="url(#clip0_4245_11284)">
<path d="M20.901 4.91092C19.371 4.22092 17.731 3.71092 16.016 3.42092C16.0007 3.41799 15.9849 3.41988 15.9707 3.42633C15.9566 3.43278 15.9448 3.44347 15.937 3.45692C15.727 3.82592 15.493 4.30692 15.329 4.68692C13.5101 4.41516 11.6609 4.41516 9.84198 4.68692C9.65931 4.26578 9.45332 3.85514 9.22498 3.45692C9.21724 3.4433 9.20553 3.43237 9.19141 3.42558C9.1773 3.41879 9.16145 3.41647 9.14598 3.41892C7.43198 3.70892 5.79198 4.21892 4.26098 4.90992C4.24781 4.91544 4.23664 4.92487 4.22898 4.93692C1.11698 9.51192 0.263977 13.9739 0.682977 18.3799C0.684143 18.3907 0.687492 18.4012 0.692822 18.4106C0.698151 18.4201 0.705349 18.4283 0.713977 18.4349C2.53037 19.7573 4.55631 20.7647 6.70698 21.4149C6.72197 21.4195 6.738 21.4195 6.75299 21.4149C6.76797 21.4102 6.78121 21.4012 6.79098 21.3889C7.25377 20.77 7.66387 20.1134 8.01698 19.4259C8.02188 19.4165 8.0247 19.4062 8.02526 19.3956C8.02582 19.385 8.02409 19.3744 8.0202 19.3646C8.01632 19.3547 8.01036 19.3458 8.00273 19.3384C7.9951 19.3311 7.98597 19.3254 7.97598 19.3219C7.32998 19.0786 6.70406 18.7851 6.10398 18.4439C6.09319 18.4378 6.08411 18.429 6.07753 18.4185C6.07096 18.408 6.0671 18.396 6.06631 18.3836C6.06552 18.3712 6.06781 18.3588 6.07299 18.3475C6.07817 18.3362 6.08607 18.3264 6.09598 18.3189C6.22198 18.2259 6.34798 18.1289 6.46798 18.0319C6.47878 18.0232 6.49179 18.0176 6.50556 18.0159C6.51933 18.0141 6.53332 18.0162 6.54598 18.0219C10.473 19.7859 14.726 19.7859 18.607 18.0219C18.6197 18.0159 18.6338 18.0135 18.6478 18.0151C18.6617 18.0167 18.675 18.0222 18.686 18.0309C18.806 18.1289 18.931 18.2259 19.058 18.3189C19.068 18.3262 19.076 18.3359 19.0814 18.3471C19.0867 18.3583 19.0892 18.3706 19.0886 18.383C19.088 18.3954 19.0843 18.4075 19.0779 18.4181C19.0716 18.4287 19.0626 18.4376 19.052 18.4439C18.454 18.7879 17.832 19.0789 17.179 19.3209C17.1689 19.3246 17.1598 19.3303 17.1522 19.3377C17.1445 19.3452 17.1386 19.3542 17.1347 19.3641C17.1308 19.3741 17.1291 19.3847 17.1297 19.3954C17.1302 19.406 17.1331 19.4164 17.138 19.4259C17.498 20.1129 17.91 20.7669 18.363 21.3879C18.3724 21.4007 18.3855 21.4102 18.4005 21.4152C18.4156 21.4202 18.4318 21.4205 18.447 21.4159C20.6013 20.7676 22.6306 19.7597 24.449 18.4349C24.4578 18.4287 24.4653 18.4207 24.4708 18.4114C24.4763 18.4021 24.4798 18.3917 24.481 18.3809C24.981 13.2869 23.643 8.86092 20.932 4.93892C20.9253 4.92617 20.9143 4.91624 20.901 4.91092ZM8.60398 15.6969C7.42198 15.6969 6.44698 14.6279 6.44698 13.3169C6.44698 12.0049 7.40298 10.9369 8.60398 10.9369C9.81398 10.9369 10.78 12.0139 10.761 13.3169C10.761 14.6289 9.80498 15.6969 8.60398 15.6969V15.6969ZM16.579 15.6969C15.396 15.6969 14.422 14.6279 14.422 13.3169C14.422 12.0049 15.377 10.9369 16.579 10.9369C17.789 10.9369 18.755 12.0139 18.736 13.3169C18.736 14.6289 17.79 15.6969 16.579 15.6969V15.6969Z" fill="#98A2B3"/>
</g>
<defs>
<clipPath id="clip0_4245_11284">
<rect width="24" height="24" fill="white" transform="translate(0.583496 0.417969)"/>
</clipPath>
</defs>
</svg>
