<svg width="24" height="25" viewBox="0 0 24 25" fill="none" xmlns="http://www.w3.org/2000/svg">
<g clip-path="url(#clip0_4245_11286)">
<path d="M12.2734 0.709961C6.12588 0.709961 1.08331 5.45105 0.606934 11.4771L6.88033 14.0727C7.4307 13.6973 8.08158 13.4968 8.74778 13.4975C8.80852 13.4975 8.86999 13.5012 8.93072 13.5012L11.7209 9.4611V9.40402C11.7209 6.96872 13.6989 4.99077 16.1342 4.99077C18.5695 4.99077 20.5511 6.97238 20.5511 9.40768C20.5495 10.5783 20.0836 11.7005 19.2555 12.5279C18.4274 13.3553 17.3048 13.8204 16.1342 13.8209H16.0354L12.0561 16.6602C12.0561 16.7136 12.0597 16.7633 12.0597 16.8168C12.0597 18.6462 10.5808 20.1287 8.75144 20.1287C7.15839 20.1287 5.80903 18.985 5.50022 17.4688L1.01087 15.6086C2.40194 20.5253 6.91106 24.1271 12.2734 24.1271C18.7371 24.1271 23.9779 18.8869 23.9779 12.4189C23.9779 5.95084 18.7378 0.710693 12.2734 0.710693V0.709961ZM7.93992 18.4779L6.50274 17.8829C6.76741 18.4328 7.22424 18.8667 7.78698 19.1028C8.39609 19.355 9.08033 19.3554 9.68975 19.104C10.2992 18.8525 10.7841 18.3698 11.0382 17.7615C11.1643 17.4604 11.2295 17.1373 11.2301 16.8109C11.2308 16.4845 11.1668 16.1612 11.0419 15.8596C10.9186 15.5565 10.7361 15.281 10.505 15.0493C10.274 14.8176 9.99896 14.6343 9.69614 14.5103C9.11269 14.2665 8.45805 14.2555 7.86674 14.4795L9.34929 15.0935C10.283 15.4857 10.725 16.557 10.3364 17.4907C9.94787 18.4244 8.87291 18.8664 7.93918 18.4779H7.93992ZM19.0766 9.39963C19.0758 8.62012 18.7661 7.87271 18.2152 7.32118C17.6644 6.76964 16.9173 6.45896 16.1378 6.45722C15.3575 6.45722 14.6091 6.76722 14.0572 7.31903C13.5054 7.87084 13.1954 8.61925 13.1954 9.39963C13.1954 10.18 13.5054 10.9284 14.0572 11.4802C14.6091 12.032 15.3575 12.342 16.1378 12.342C16.9175 12.3409 17.6649 12.0304 18.2159 11.4787C18.7668 10.9271 19.0764 10.1793 19.0766 9.39963ZM13.9352 9.39597C13.9352 8.17247 14.9224 7.18532 16.1422 7.18532C17.3621 7.18532 18.3565 8.17247 18.3565 9.39597C18.3565 10.6158 17.3621 11.6066 16.1422 11.6066C14.9224 11.6066 13.9352 10.6158 13.9352 9.39597Z" fill="#98A2B3"/>
</g>
<defs>
<clipPath id="clip0_4245_11286">
<rect width="23.4164" height="23.4164" fill="white" transform="translate(0.583496 0.709961)"/>
</clipPath>
</defs>
</svg>
