<svg width="43" height="43" viewBox="0 0 43 43" fill="none" xmlns="http://www.w3.org/2000/svg">
<g opacity="0.4">
<path d="M21.4343 20.7243V41.5274C21.4343 41.5274 30.0312 35.4899 36.0687 33.7181C36.0687 33.7181 36.3312 20.8556 40.0718 14.4243L21.4343 20.7243Z" fill="#FB8C00"/>
<path d="M26.8157 38.3774C26.8157 38.3774 27.1438 19.9368 27.8 19.0181C28.4563 18.0337 34.1001 17.0493 34.1001 17.0493C34.1001 17.0493 31.8032 34.3087 32.3282 35.4243C32.3938 35.3587 30.0313 36.3431 26.8157 38.3774Z" fill="#B3690E"/>
<path d="M21.4344 41.5274C21.4344 41.5274 15.3969 36.4087 6.01252 33.7181C6.01252 33.7181 6.7344 23.1524 3.3219 15.0806L21.4344 20.7243V41.5274Z" fill="#3BAACF"/>
<path d="M9.81865 35.4248C9.81865 35.4248 15.3312 37.6561 15.7249 38.3779C16.1187 39.0998 16.1187 19.8061 16.1187 19.8061C16.1187 19.8061 8.57178 17.7061 7.91553 17.7061C7.91553 17.7061 10.2124 25.5154 9.81865 35.4248Z" fill="#E9C243"/>
<path opacity="0.3" d="M21.4344 20.7243V24.2024L38.3 18.4274C38.7593 16.9837 39.35 15.6056 40.0062 14.4243L21.4344 20.7243ZM4.5031 18.6899C4.17498 17.4431 3.78123 16.2618 3.25623 15.0806L21.3687 20.7243V24.2024L4.5031 18.6899Z" fill="black"/>
<path d="M1.8125 13.2427L20.5156 17.3771L41.1875 12.3896L20.9094 11.2739L1.8125 13.2427Z" fill="#4FC7E8"/>
<path d="M1.8125 13.2432L3.32187 17.3775L20.5156 22.2338V17.3775L1.8125 13.2432Z" fill="#3BAACF"/>
<path d="M20.5156 22.2337C20.5156 22.2337 36.1344 16.4587 40.0063 16.1962C40.0063 16.1962 40.2688 13.8993 41.1875 12.4556L20.5156 17.3774V22.2337Z" fill="#076170"/>
<path d="M7.3905 14.4896L11.1968 18.0989L15.3968 16.1958L21.4999 14.3583L29.1124 15.2771L33.1155 16.0646L36.3311 13.5708L7.3905 14.4896Z" fill="#F0AE11"/>
<path d="M15.3968 16.1962L21.4999 14.3587L29.1124 15.2774L36.3311 13.5712L21.1061 12.1274L7.3905 14.4899L15.3968 16.1962Z" fill="#F0AE11"/>
<path d="M7.3905 14.4897V19.0835L15.0686 21.1835L15.3968 16.196L7.3905 14.4897Z" fill="#F8D048"/>
<path d="M29.1125 15.2771L29.2438 19.6739L35.8063 17.7052L36.3313 13.5708L29.1125 15.2771Z" fill="#C47116"/>
<path d="M24.9782 12.193C24.9782 12.193 24.9782 7.59922 29.4407 3.59609C29.4407 3.59609 26.75 4.58047 25.4375 4.31797C23.8625 4.05547 23.3375 2.15234 23.3375 2.15234C23.3375 2.15234 19.5313 10.4211 20.6469 11.4711C21.7625 12.5867 24.9782 12.193 24.9782 12.193Z" fill="#EA9F07"/>
<path d="M19.1375 14.8833C19.1375 14.8833 16.5781 9.6333 11.1312 6.87705C11.1312 6.87705 15.3969 6.4833 16.3812 5.9583C17.6281 5.36768 18.35 3.72705 18.35 3.72705C18.35 3.72705 23.075 11.9958 22.6812 13.2427C22.2875 14.4896 19.1375 14.8833 19.1375 14.8833Z" fill="#F8D048"/>
<path d="M21.8937 14.2934C21.8937 14.2934 17.8906 15.8684 12.7718 15.8684C2.00931 15.8028 0.49993 8.05902 11.1312 8.7809C19.8593 9.43715 21.8937 14.2934 21.8937 14.2934Z" fill="#EA9F07"/>
<path d="M21.1719 14.2276C21.1719 14.2276 25.8969 14.6213 30.2938 13.5057C39.4813 11.1432 36.0688 4.18696 27.4063 7.14008C20.3188 9.56821 21.1719 14.2276 21.1719 14.2276Z" fill="#F0AE11"/>
<path d="M21.8937 14.2928C21.8937 14.2928 19.4 15.2771 16.1844 15.2771C9.49062 15.2771 8.50624 10.4209 15.1344 10.8803C20.5812 11.274 21.8937 14.2928 21.8937 14.2928Z" fill="#824000"/>
<path d="M21.8938 14.2927C21.8938 14.2927 25.1751 14.5552 28.2595 13.7677C34.6907 12.1271 32.2626 7.27086 26.2907 9.30523C21.3032 11.0115 21.8938 14.2927 21.8938 14.2927Z" fill="#824000"/>
</g>
</svg>
