<svg width="19" height="20" viewBox="0 0 19 20" fill="none" xmlns="http://www.w3.org/2000/svg">
<g clip-path="url(#clip0_6_64372)">
<path d="M2.4081 7.46064C2.52563 7.17797 2.39173 6.85215 2.10757 6.73462C1.8249 6.61708 1.49907 6.75098 1.38154 7.03515C1.16135 7.56181 0.991749 8.1108 0.878679 8.67912C0.767097 9.23406 0.709074 9.80833 0.709074 10.396C0.709074 12.6217 1.54222 14.6525 2.91394 16.1953C4.30053 17.7545 6.2376 18.8138 8.42163 19.0682C8.72663 19.1024 9.00186 18.8837 9.03757 18.5787C9.07179 18.2737 8.85309 17.9985 8.5481 17.9628C6.64525 17.7411 4.95515 16.8172 3.74411 15.4559C2.54795 14.1109 1.82192 12.339 1.82192 10.396C1.82192 9.88272 1.87251 9.38135 1.96921 8.89634C2.07038 8.39496 2.21766 7.9159 2.4081 7.46064ZM14.6301 10.3365C14.514 10.3439 14.4262 10.4451 14.4337 10.5626C14.4411 10.6787 14.5423 10.7679 14.6598 10.759C14.7759 10.7516 14.8636 10.6504 14.8562 10.5344C14.8488 10.4183 14.7476 10.3276 14.6301 10.3365ZM5.4476 10.9643C5.33155 10.9718 5.24377 11.0729 5.25121 11.189C5.25865 11.305 5.35982 11.3943 5.47735 11.3854C5.5934 11.3779 5.68266 11.2768 5.67374 11.1607C5.6663 11.0447 5.56513 10.9569 5.4476 10.9643ZM3.08057 4.53719L6.68393 5.18288L5.93707 4.12359C7.07521 2.90958 8.3413 2.47366 9.85435 2.92446C8.25054 0.936806 6.11858 0.93383 4.4508 2.008L3.69055 0.926392L3.08057 4.53719ZM13.1646 14.529L13.9115 15.5883C12.7733 16.8023 11.5073 17.2382 9.9942 16.7874C11.5995 18.7736 13.7315 18.7766 15.3992 17.7024L16.161 18.784L16.7695 15.1747L13.1646 14.529ZM17.131 13.0576C16.9971 13.3343 17.1131 13.6661 17.3899 13.7985C17.6666 13.9324 17.9984 13.8164 18.1308 13.5396C18.4105 12.9594 18.6277 12.3435 18.7735 11.6978C18.9163 11.0685 18.9922 10.4198 18.9922 9.75775C18.9922 7.57818 18.1918 5.58309 16.8677 4.05218C15.5272 2.50044 13.6496 1.42628 11.5236 1.11683C11.2201 1.07368 10.9389 1.28494 10.8958 1.58845C10.8526 1.89195 11.0639 2.17314 11.3674 2.21628C13.2212 2.48557 14.8592 3.42286 16.0301 4.77672C17.1816 6.11273 17.8793 7.85193 17.8793 9.75775C17.8793 10.3454 17.8139 10.9137 17.6919 11.4553C17.5639 12.0132 17.375 12.5503 17.131 13.0576Z" fill="#6FCF97"/>
</g>
<defs>
<clipPath id="clip0_6_64372">
<rect width="18.2816" height="18.1433" fill="white" transform="matrix(-1 0 0 1 19 0.928345)"/>
</clipPath>
</defs>
</svg>
