<svg width="24" height="24" viewBox="0 0 24 24" fill="none" xmlns="http://www.w3.org/2000/svg">
<g clip-path="url(#clip0_6_101665)">
<path d="M11.9807 0C5.67994 0 0.511687 4.85925 0.0234375 11.0355L6.45319 13.6957C7.01728 13.311 7.68438 13.1056 8.36719 13.1063C8.42944 13.1062 8.49244 13.11 8.55469 13.11L11.4144 8.96925V8.91075C11.4144 6.41475 13.4417 4.3875 15.9377 4.3875C18.4337 4.3875 20.4647 6.4185 20.4647 8.9145C20.4631 10.1143 19.9855 11.2645 19.1368 12.1125C18.288 12.9605 17.1375 13.4372 15.9377 13.4377H15.8364L11.7579 16.3478C11.7579 16.4025 11.7617 16.4535 11.7617 16.5082C11.7617 18.3832 10.2459 19.9028 8.37094 19.9028C6.73819 19.9028 5.35519 18.7305 5.03869 17.1765L0.437437 15.27C1.86319 20.3092 6.48469 24.0007 11.9807 24.0007C18.6054 24.0007 23.9769 18.63 23.9769 12.0007C23.9769 5.3715 18.6062 0.00075 11.9807 0.00075V0ZM7.53919 18.2108L6.06619 17.601C6.33746 18.1646 6.80568 18.6093 7.38244 18.8512C8.00673 19.1097 8.70802 19.1101 9.33264 18.8524C9.95725 18.5948 10.4542 18.1 10.7147 17.4765C10.8439 17.1679 10.9108 16.8368 10.9114 16.5023C10.912 16.1677 10.8465 15.8363 10.7184 15.5272C10.5921 15.2165 10.4051 14.9342 10.1683 14.6967C9.93141 14.4592 9.64955 14.2714 9.33919 14.1442C8.74119 13.8945 8.07024 13.8832 7.46419 14.1127L8.98369 14.742C9.94069 15.144 10.3937 16.242 9.99544 17.199C9.59719 18.156 8.49544 18.609 7.53844 18.2108H7.53919ZM18.9534 8.90625C18.9526 8.10732 18.6352 7.34128 18.0706 6.77599C17.506 6.21071 16.7404 5.89229 15.9414 5.8905C15.1416 5.8905 14.3745 6.20823 13.809 6.77379C13.2434 7.33936 12.9257 8.10642 12.9257 8.90625C12.9257 9.70608 13.2434 10.4731 13.809 11.0387C14.3745 11.6043 15.1416 11.922 15.9414 11.922C16.7405 11.9208 17.5065 11.6026 18.0712 11.0372C18.636 10.4718 18.9532 9.70537 18.9534 8.90625ZM13.6839 8.9025C13.6839 7.6485 14.6957 6.63675 15.9459 6.63675C17.1962 6.63675 18.2154 7.6485 18.2154 8.9025C18.2154 10.1528 17.1962 11.1683 15.9459 11.1683C14.6957 11.1683 13.6839 10.1528 13.6839 8.9025Z" fill="white"/>
</g>
<defs>
<clipPath id="clip0_6_101665">
<rect width="24" height="24" fill="white"/>
</clipPath>
</defs>
</svg>
