<svg width="14" height="14" viewBox="0 0 14 14" fill="none" xmlns="http://www.w3.org/2000/svg">
<path d="M6.80624 5.24612C6.42665 5.24612 6.07118 5.39338 5.80204 5.66252C5.53416 5.93166 5.38563 6.28713 5.38563 6.66672C5.38563 7.04631 5.53416 7.40178 5.80204 7.67092C6.07118 7.93879 6.42665 8.08733 6.80624 8.08733C7.18582 8.08733 7.54129 7.93879 7.81043 7.67092C8.07831 7.40178 8.22684 7.04631 8.22684 6.66672C8.22684 6.28713 8.07831 5.93166 7.81043 5.66252C7.67898 5.53006 7.52251 5.42503 7.35012 5.35355C7.17773 5.28206 6.99286 5.24555 6.80624 5.24612ZM12.0405 8.23586L11.2102 7.5262C11.2496 7.28499 11.2699 7.0387 11.2699 6.79368C11.2699 6.54866 11.2496 6.3011 11.2102 6.06116L12.0405 5.35149C12.1032 5.2978 12.1481 5.22628 12.1692 5.14646C12.1903 5.06663 12.1866 4.98228 12.1586 4.90461L12.1472 4.87161C11.9187 4.23264 11.5763 3.64036 11.1366 3.12346L11.1138 3.0968C11.0604 3.03403 10.9892 2.9889 10.9097 2.96737C10.8301 2.94584 10.7459 2.94892 10.6681 2.9762L9.63729 3.34309C9.25643 3.03079 8.83241 2.7845 8.37284 2.61311L8.17352 1.53528C8.15848 1.45408 8.11909 1.37938 8.06059 1.32111C8.00209 1.26283 7.92724 1.22373 7.84598 1.20901L7.8117 1.20266C7.15155 1.08333 6.45584 1.08333 5.79569 1.20266L5.76141 1.20901C5.68016 1.22373 5.60531 1.26283 5.5468 1.32111C5.4883 1.37938 5.44891 1.45408 5.43387 1.53528L5.23329 2.61819C4.77807 2.79094 4.354 3.03663 3.97772 3.34563L2.93924 2.9762C2.8615 2.9487 2.77724 2.94551 2.69764 2.96706C2.61805 2.9886 2.5469 3.03385 2.49364 3.0968L2.47079 3.12346C2.0319 3.64091 1.68961 4.23304 1.46024 4.87161L1.44881 4.90461C1.39168 5.06331 1.43866 5.24104 1.56688 5.35149L2.40731 6.06877C2.36795 6.30745 2.34891 6.5512 2.34891 6.79241C2.34891 7.03616 2.36795 7.27991 2.40731 7.51604L1.56942 8.23333C1.5067 8.28702 1.46181 8.35853 1.44072 8.43836C1.41963 8.51818 1.42334 8.60253 1.45135 8.6802L1.46278 8.71321C1.69256 9.35178 2.03153 9.94211 2.47332 10.4614L2.49618 10.488C2.54957 10.5508 2.62072 10.5959 2.70027 10.6174C2.77982 10.639 2.86402 10.6359 2.94178 10.6086L3.98026 10.2392C4.35858 10.5502 4.78006 10.7965 5.23582 10.9666L5.43641 12.0495C5.45145 12.1307 5.49084 12.2054 5.54934 12.2637C5.60784 12.322 5.6827 12.3611 5.76395 12.3758L5.79823 12.3822C6.46488 12.5021 7.14759 12.5021 7.81424 12.3822L7.84852 12.3758C7.92977 12.3611 8.00463 12.322 8.06313 12.2637C8.12163 12.2054 8.16102 12.1307 8.17606 12.0495L8.37538 10.9717C8.83495 10.799 9.25897 10.554 9.63983 10.2417L10.6707 10.6086C10.7484 10.6361 10.8327 10.6393 10.9123 10.6178C10.9919 10.5962 11.063 10.551 11.1163 10.488L11.1391 10.4614C11.5809 9.93958 11.9199 9.35178 12.1497 8.71321L12.1611 8.6802C12.2157 8.52278 12.1687 8.34631 12.0405 8.23586ZM6.80624 8.89856C5.57352 8.89856 4.5744 7.89944 4.5744 6.66672C4.5744 5.43401 5.57352 4.43489 6.80624 4.43489C8.03895 4.43489 9.03807 5.43401 9.03807 6.66672C9.03807 7.89944 8.03895 8.89856 6.80624 8.89856Z" fill="url(#paint0_linear_6_64755)"/>
<defs>
<linearGradient id="paint0_linear_6_64755" x1="6.80417" y1="1.11316" x2="6.80417" y2="12.4721" gradientUnits="userSpaceOnUse">
<stop stop-color="#AFAFAF"/>
<stop offset="0.39757" stop-color="#434343"/>
<stop offset="0.652778" stop-color="#696969"/>
<stop offset="1" stop-color="#CBC9C9" stop-opacity="0.9"/>
</linearGradient>
</defs>
</svg>
