<svg width="17" height="16" viewBox="0 0 17 16" fill="none" xmlns="http://www.w3.org/2000/svg">
<path d="M2.08853 4.26839L4.27559 2.12548C4.44644 1.95815 4.72356 1.9582 4.8943 2.12548L7.08128 4.26839C7.35663 4.53812 7.16055 5.00001 6.77191 5.00001H5.45996V13.5714C5.45996 13.8081 5.2641 14 5.02246 14H4.14746C3.90582 14 3.70996 13.8081 3.70996 13.5714V5.00001H2.3979C2.00849 5.00001 1.81375 4.53758 2.08853 4.26839ZM8.52246 3.7143H15.5225C15.7641 3.7143 15.96 3.52243 15.96 3.28573V2.42858C15.96 2.19188 15.7641 2.00001 15.5225 2.00001H8.52246C8.28082 2.00001 8.08496 2.19188 8.08496 2.42858V3.28573C8.08496 3.52243 8.28082 3.7143 8.52246 3.7143ZM8.08496 6.71429V5.85715C8.08496 5.62045 8.28082 5.42858 8.52246 5.42858H13.7725C14.0141 5.42858 14.21 5.62045 14.21 5.85715V6.71429C14.21 6.951 14.0141 7.14287 13.7725 7.14287H8.52246C8.28082 7.14287 8.08496 6.951 8.08496 6.71429ZM8.08496 13.5714V12.7143C8.08496 12.4776 8.28082 12.2857 8.52246 12.2857H10.2725C10.5141 12.2857 10.71 12.4776 10.71 12.7143V13.5714C10.71 13.8081 10.5141 14 10.2725 14H8.52246C8.28082 14 8.08496 13.8081 8.08496 13.5714ZM8.08496 10.1429V9.28572C8.08496 9.04901 8.28082 8.85715 8.52246 8.85715H12.0225C12.2641 8.85715 12.46 9.04901 12.46 9.28572V10.1429C12.46 10.3796 12.2641 10.5714 12.0225 10.5714H8.52246C8.28082 10.5714 8.08496 10.3796 8.08496 10.1429Z" fill="#BDBDBD"/>
</svg>
