<svg width="14" height="14" viewBox="0 0 14 14" fill="none" xmlns="http://www.w3.org/2000/svg">
<path d="M6.80331 5.24624C6.42372 5.24624 6.06825 5.39351 5.79911 5.66265C5.53124 5.93179 5.3827 6.28726 5.3827 6.66685C5.3827 7.04644 5.53124 7.4019 5.79911 7.67104C6.06825 7.93892 6.42372 8.08745 6.80331 8.08745C7.1829 8.08745 7.53836 7.93892 7.8075 7.67104C8.07538 7.4019 8.22391 7.04644 8.22391 6.66685C8.22391 6.28726 8.07538 5.93179 7.8075 5.66265C7.67605 5.53018 7.51958 5.42515 7.34719 5.35367C7.1748 5.28219 6.98993 5.24567 6.80331 5.24624ZM12.0376 8.23599L11.2073 7.52632C11.2467 7.28511 11.267 7.03882 11.267 6.7938C11.267 6.54878 11.2467 6.30122 11.2073 6.06128L12.0376 5.35161C12.1003 5.29792 12.1452 5.22641 12.1663 5.14658C12.1874 5.06676 12.1837 4.9824 12.1556 4.90474L12.1442 4.87173C11.9157 4.23276 11.5733 3.64048 11.1337 3.12358L11.1108 3.09692C11.0574 3.03415 10.9863 2.98902 10.9067 2.96749C10.8272 2.94596 10.743 2.94904 10.6652 2.97632L9.63436 3.34321C9.2535 3.03091 8.82948 2.78462 8.36991 2.61323L8.17059 1.5354C8.15555 1.4542 8.11617 1.37951 8.05766 1.32123C7.99916 1.26295 7.92431 1.22385 7.84305 1.20913L7.80877 1.20278C7.14862 1.08345 6.45291 1.08345 5.79276 1.20278L5.75848 1.20913C5.67723 1.22385 5.60238 1.26295 5.54387 1.32123C5.48537 1.37951 5.44598 1.4542 5.43094 1.5354L5.23036 2.61831C4.77514 2.79106 4.35107 3.03676 3.97479 3.34575L2.93631 2.97632C2.85857 2.94882 2.77431 2.94563 2.69471 2.96718C2.61512 2.98872 2.54397 3.03397 2.49071 3.09692L2.46786 3.12358C2.02897 3.64103 1.68668 4.23316 1.45731 4.87173L1.44588 4.90474C1.38875 5.06343 1.43573 5.24116 1.56395 5.35161L2.40438 6.0689C2.36502 6.30757 2.34598 6.55132 2.34598 6.79253C2.34598 7.03628 2.36502 7.28003 2.40438 7.51616L1.56649 8.23345C1.50377 8.28714 1.45888 8.35865 1.43779 8.43848C1.4167 8.5183 1.42041 8.60266 1.44842 8.68032L1.45985 8.71333C1.68963 9.3519 2.0286 9.94224 2.47039 10.4615L2.49325 10.4881C2.54664 10.5509 2.61779 10.596 2.69734 10.6176C2.77689 10.6391 2.86109 10.636 2.93885 10.6087L3.97733 10.2393C4.35565 10.5503 4.77713 10.7966 5.2329 10.9667L5.43348 12.0497C5.44852 12.1309 5.48791 12.2056 5.54641 12.2638C5.60491 12.3221 5.67977 12.3612 5.76102 12.3759L5.7953 12.3823C6.46195 12.5023 7.14466 12.5023 7.81131 12.3823L7.84559 12.3759C7.92684 12.3612 8.0017 12.3221 8.0602 12.2638C8.1187 12.2056 8.15809 12.1309 8.17313 12.0497L8.37245 10.9718C8.83202 10.7992 9.25604 10.5542 9.6369 10.2418L10.6678 10.6087C10.7455 10.6362 10.8298 10.6394 10.9094 10.6179C10.989 10.5963 11.0601 10.5511 11.1134 10.4881L11.1362 10.4615C11.578 9.9397 11.917 9.3519 12.1468 8.71333L12.1582 8.68032C12.2128 8.5229 12.1658 8.34644 12.0376 8.23599ZM6.80331 8.89868C5.57059 8.89868 4.57147 7.89956 4.57147 6.66685C4.57147 5.43413 5.57059 4.43501 6.80331 4.43501C8.03602 4.43501 9.03514 5.43413 9.03514 6.66685C9.03514 7.89956 8.03602 8.89868 6.80331 8.89868Z" fill="url(#paint0_linear_997_160394)"/>
<defs>
<linearGradient id="paint0_linear_997_160394" x1="6.80124" y1="1.11328" x2="6.80124" y2="12.4723" gradientUnits="userSpaceOnUse">
<stop stop-color="#AFAFAF"/>
<stop offset="0.39757" stop-color="#434343"/>
<stop offset="0.652778" stop-color="#696969"/>
<stop offset="1" stop-color="#CBC9C9" stop-opacity="0.9"/>
</linearGradient>
</defs>
</svg>
