<svg width="14" height="14" viewBox="0 0 14 14" fill="none" xmlns="http://www.w3.org/2000/svg">
<g clip-path="url(#clip0_997_160389)">
<path d="M12.2134 1.82905C10.8841 0.499692 8.74122 0.499692 7.4317 1.82905C6.34044 2.92031 6.16187 4.56713 6.83647 5.85681L1.99522 10.7576L1.30078 12.4242L1.61824 12.7417L2.86823 12.6227L8.18567 7.22585C9.47534 7.94013 11.1222 7.74172 12.1936 6.65046C13.5428 5.3211 13.5428 3.15841 12.2134 1.82905ZM11.261 4.24967C10.8642 4.6465 10.2095 4.6465 9.81264 4.24967C9.41582 3.85285 9.41582 3.19809 9.81264 2.78143C10.2095 2.3846 10.8642 2.3846 11.261 2.78143C11.6777 3.17825 11.6777 3.83301 11.261 4.24967Z" fill="#EDA454"/>
<path d="M4.0319 11.8463L4.30968 11.5487V11.1519L2.86127 12.6201L3.73428 12.5209L4.0319 12.2233V11.8463ZM6.07554 9.76298L6.35332 9.46536V9.06854L4.60729 10.8542H5.00412L5.28189 10.5566H5.67872L6.07554 10.1598V9.76298ZM6.94855 6.70744C7.04776 6.60823 6.98823 6.56855 6.94855 6.50903C6.88903 6.4495 6.86919 6.38998 6.76998 6.50903L2.46445 10.8542C2.36524 10.9535 2.42476 10.9931 2.46445 11.0527C2.52397 11.1122 2.54381 11.1717 2.64302 11.0527L6.94855 6.70744ZM7.54379 7.30267C7.64299 7.20347 7.58347 7.16379 7.54379 7.10426C7.48426 7.04474 7.46442 6.98521 7.36522 7.10426L3.03984 11.4495C2.94064 11.5487 3.00016 11.5884 3.03984 11.6479C3.09936 11.7074 3.11921 11.7669 3.21841 11.6479L7.54379 7.30267ZM12.0081 2.02492C10.7977 0.81461 8.83346 0.81461 7.62315 2.02492C6.71046 2.93762 6.4922 4.28682 6.94855 5.41776C6.53189 4.34634 6.76998 3.09634 7.62315 2.24317C8.77394 1.07254 10.6589 1.07254 11.8096 2.22333C12.9604 3.39396 12.9604 5.27887 11.8096 6.42966C10.9565 7.28283 9.70647 7.50109 8.65489 7.10426C9.78584 7.56061 11.1152 7.34236 12.0279 6.42966C13.2184 5.21935 13.2184 3.23523 12.0081 2.02492Z" fill="#CC7F2B"/>
</g>
<defs>
<clipPath id="clip0_997_160389">
<rect width="12.6983" height="12.6983" fill="white" transform="translate(0.902344 0.4375)"/>
</clipPath>
</defs>
</svg>
