<svg width="48" height="48" viewBox="0 0 48 48" fill="none" xmlns="http://www.w3.org/2000/svg">
<path d="M24 43.9984C18.6942 44.0032 13.6044 41.8976 9.8526 38.1458C6.10084 34.3941 3.99523 29.3042 4.00001 23.9984V23.5984C4.16358 15.5829 9.09561 8.43874 16.5327 5.44455C23.9699 2.45036 32.4762 4.18421 38.148 9.85043C43.8729 15.5706 45.5863 24.1771 42.4887 31.6537C39.391 39.1303 32.0929 44.0032 24 43.9984ZM24 26.8184L29.18 31.9984L32 29.1784L26.82 23.9984L32 18.8184L29.18 15.9984L24 21.1784L18.82 15.9984L16 18.8184L21.18 23.9984L16 29.1784L18.82 31.9984L24 26.8204V26.8184Z" fill="#F6655A"/>
</svg>
