<svg width="19" height="20" viewBox="0 0 19 20" fill="none" xmlns="http://www.w3.org/2000/svg">
<g clip-path="url(#clip0_997_160179)">
<path d="M2.4081 7.46003C2.52563 7.17736 2.39173 6.85154 2.10757 6.73401C1.8249 6.61647 1.49907 6.75037 1.38154 7.03453C1.16135 7.5612 0.991749 8.11019 0.878679 8.67851C0.767097 9.23345 0.709074 9.80772 0.709074 10.3954C0.709074 12.6211 1.54222 14.6519 2.91394 16.1947C4.30053 17.7539 6.2376 18.8132 8.42163 19.0676C8.72663 19.1018 9.00186 18.8831 9.03757 18.5781C9.07179 18.2731 8.85309 17.9979 8.5481 17.9622C6.64525 17.7405 4.95515 16.8166 3.74411 15.4553C2.54795 14.1103 1.82192 12.3384 1.82192 10.3954C1.82192 9.88211 1.87251 9.38074 1.96921 8.89573C2.07038 8.39435 2.21766 7.91529 2.4081 7.46003ZM14.6301 10.3359C14.514 10.3433 14.4262 10.4445 14.4337 10.562C14.4411 10.6781 14.5423 10.7673 14.6598 10.7584C14.7759 10.751 14.8636 10.6498 14.8562 10.5338C14.8488 10.4177 14.7476 10.327 14.6301 10.3359ZM5.4476 10.9637C5.33155 10.9712 5.24377 11.0723 5.25121 11.1884C5.25865 11.3044 5.35982 11.3937 5.47735 11.3848C5.5934 11.3773 5.68266 11.2761 5.67374 11.1601C5.6663 11.0441 5.56513 10.9563 5.4476 10.9637ZM3.08057 4.53658L6.68393 5.18227L5.93707 4.12298C7.07521 2.90897 8.3413 2.47305 9.85435 2.92385C8.25054 0.936196 6.11858 0.93322 4.4508 2.00738L3.69055 0.925781L3.08057 4.53658ZM13.1646 14.5284L13.9115 15.5877C12.7733 16.8017 11.5073 17.2376 9.9942 16.7868C11.5995 18.773 13.7315 18.776 15.3992 17.7018L16.161 18.7834L16.7695 15.1741L13.1646 14.5284ZM17.131 13.057C16.9971 13.3337 17.1131 13.6655 17.3899 13.7979C17.6666 13.9318 17.9984 13.8158 18.1308 13.539C18.4105 12.9588 18.6277 12.3429 18.7735 11.6972C18.9163 11.0679 18.9922 10.4192 18.9922 9.75714C18.9922 7.57757 18.1918 5.58248 16.8677 4.05157C15.5272 2.49983 13.6496 1.42567 11.5236 1.11621C11.2201 1.07307 10.9389 1.28433 10.8958 1.58784C10.8526 1.89134 11.0639 2.17253 11.3674 2.21567C13.2212 2.48496 14.8592 3.42225 16.0301 4.77611C17.1816 6.11212 17.8793 7.85132 17.8793 9.75714C17.8793 10.3448 17.8139 10.9131 17.6919 11.4547C17.5639 12.0126 17.375 12.5497 17.131 13.057Z" fill="#6FCF97"/>
</g>
<defs>
<clipPath id="clip0_997_160179">
<rect width="18.2816" height="18.1433" fill="white" transform="matrix(-1 0 0 1 19 0.927734)"/>
</clipPath>
</defs>
</svg>
