<svg width="17" height="16" viewBox="0 0 17 16" fill="none" xmlns="http://www.w3.org/2000/svg">
<path d="M2.08951 4.26839L4.27657 2.12548C4.44741 1.95815 4.72454 1.9582 4.89528 2.12548L7.08226 4.26839C7.35761 4.53812 7.16153 5.00001 6.77289 5.00001H5.46094V13.5714C5.46094 13.8081 5.26507 14 5.02344 14H4.14844C3.9068 14 3.71094 13.8081 3.71094 13.5714V5.00001H2.39887C2.00947 5.00001 1.81473 4.53758 2.08951 4.26839ZM8.52344 3.7143H15.5234C15.7651 3.7143 15.9609 3.52243 15.9609 3.28573V2.42858C15.9609 2.19188 15.7651 2.00001 15.5234 2.00001H8.52344C8.2818 2.00001 8.08594 2.19188 8.08594 2.42858V3.28573C8.08594 3.52243 8.2818 3.7143 8.52344 3.7143ZM8.08594 6.71429V5.85715C8.08594 5.62045 8.2818 5.42858 8.52344 5.42858H13.7734C14.0151 5.42858 14.2109 5.62045 14.2109 5.85715V6.71429C14.2109 6.951 14.0151 7.14287 13.7734 7.14287H8.52344C8.2818 7.14287 8.08594 6.951 8.08594 6.71429ZM8.08594 13.5714V12.7143C8.08594 12.4776 8.2818 12.2857 8.52344 12.2857H10.2734C10.5151 12.2857 10.7109 12.4776 10.7109 12.7143V13.5714C10.7109 13.8081 10.5151 14 10.2734 14H8.52344C8.2818 14 8.08594 13.8081 8.08594 13.5714ZM8.08594 10.1429V9.28572C8.08594 9.04901 8.2818 8.85715 8.52344 8.85715H12.0234C12.2651 8.85715 12.4609 9.04901 12.4609 9.28572V10.1429C12.4609 10.3796 12.2651 10.5714 12.0234 10.5714H8.52344C8.2818 10.5714 8.08594 10.3796 8.08594 10.1429Z" fill="#BDBDBD"/>
</svg>
