<svg width="14" height="14" viewBox="0 0 14 14" fill="none" xmlns="http://www.w3.org/2000/svg">
<path d="M4.34922 3.66943V5.78243V6.04655C5.12973 6.04655 5.83117 6.38511 6.3147 6.92339C6.73484 7.3911 6.99046 8.0096 6.99046 8.68779C6.99046 8.8407 6.97747 8.99056 6.95254 9.13636C6.8167 9.93039 6.32638 10.6035 5.65027 10.9869C6.3535 11.1995 7.28692 11.329 8.31109 11.329C10.4992 11.329 12.2729 10.7378 12.2729 10.0084V7.89542V5.78243V3.66943" stroke="#6FCF97" stroke-width="1.35914" stroke-linecap="round" stroke-linejoin="round"/>
<path d="M1.70799 8.68763C1.70799 10.1463 2.89053 11.3289 4.34924 11.3289C4.82226 11.3289 5.26625 11.2045 5.65029 10.9867C6.32639 10.6033 6.81671 9.93023 6.95255 9.13619C6.97748 8.9904 6.99048 8.84053 6.99048 8.68763C6.99048 8.00944 6.73486 7.39094 6.31472 6.92323C5.83118 6.38494 5.12975 6.04639 4.34924 6.04639C2.89053 6.04639 1.70799 7.22892 1.70799 8.68763Z" stroke="#6FCF97" stroke-width="1.35914" stroke-linecap="round" stroke-linejoin="round"/>
<path d="M4.34922 3.66925C4.34922 4.39861 6.123 4.98988 8.31109 4.98988C10.4992 4.98988 12.2729 4.39861 12.2729 3.66925C12.2729 2.9399 10.4992 2.34863 8.31109 2.34863C6.123 2.34863 4.34922 2.9399 4.34922 3.66925Z" stroke="#6FCF97" stroke-width="1.35914" stroke-linecap="round" stroke-linejoin="round"/>
<path d="M12.2729 7.896C12.2729 8.62535 10.4992 9.21662 8.31109 9.21662C7.83381 9.21662 7.37627 9.18849 6.95254 9.13693" stroke="#6FCF97" stroke-width="1.35914" stroke-linecap="round" stroke-linejoin="round"/>
<path d="M12.2729 5.78174C12.2729 6.51109 10.4992 7.10236 8.31109 7.10236C7.58308 7.10236 6.90093 7.03691 6.3147 6.9227" stroke="#6FCF97" stroke-width="1.35914" stroke-linecap="round" stroke-linejoin="round"/>
<path d="M3.55673 7.896L5.14148 9.48074" stroke="white" stroke-width="1.35914" stroke-linecap="round" stroke-linejoin="round"/>
</svg>
