<svg width="83" height="78" viewBox="0 0 83 78" fill="none" xmlns="http://www.w3.org/2000/svg">
<path d="M81.7309 63.2975L50.3464 5.49084C49.5155 3.96419 48.2884 2.68981 46.7942 1.80188C45.3 0.913948 43.594 0.445312 41.8559 0.445312C40.1178 0.445312 38.4118 0.913948 36.9176 1.80188C35.4234 2.68981 34.1962 3.96419 33.3653 5.49084L1.94866 63.2975C1.12636 64.7735 0.705283 66.4392 0.72739 68.1286C0.749497 69.8181 1.21402 71.4722 2.07465 72.9261C2.93529 74.3801 4.16198 75.5831 5.63244 76.4152C7.1029 77.2473 8.76578 77.6795 10.4553 77.6686H73.2242C74.8999 77.6702 76.5472 77.2361 78.0046 76.4089C79.4619 75.5818 80.6792 74.3901 81.537 72.9506C82.3948 71.5111 82.8638 69.8734 82.8977 68.198C82.9317 66.5227 82.5296 64.8673 81.7309 63.3942V63.2975ZM37.0387 22.0531C37.0387 20.7712 37.5479 19.5418 38.4543 18.6354C39.3607 17.729 40.5901 17.2197 41.872 17.2197C43.1539 17.2197 44.3832 17.729 45.2897 18.6354C46.1961 19.5418 46.7053 20.7712 46.7053 22.0531V44.2542C46.7053 45.536 46.1961 46.7654 45.2897 47.6719C44.3832 48.5783 43.1539 49.0875 41.872 49.0875C40.5901 49.0875 39.3607 48.5783 38.4543 47.6719C37.5479 46.7654 37.0387 45.536 37.0387 44.2542V22.0531ZM42.0009 65.5853C40.9047 65.5853 39.8332 65.2602 38.9218 64.6512C38.0104 64.0423 37.3 63.1767 36.8805 62.164C36.4611 61.1513 36.3513 60.0369 36.5651 58.9618C36.779 57.8867 37.3068 56.8992 38.0819 56.1241C38.857 55.349 39.8446 54.8212 40.9196 54.6073C41.9947 54.3935 43.1091 54.5032 44.1218 54.9227C45.1345 55.3422 46.0001 56.0525 46.6091 56.964C47.2181 57.8754 47.5431 58.9469 47.5431 60.0431C47.5431 61.5129 46.9592 62.9226 45.9198 63.962C44.8805 65.0014 43.4708 65.5853 42.0009 65.5853Z" fill="#6F7577"/>
</svg>
