<svg width="19" height="19" viewBox="0 0 19 19" fill="none" xmlns="http://www.w3.org/2000/svg">
<path d="M1.94179 7.38984C2.05932 7.10717 1.92542 6.78135 1.64126 6.66382C1.35859 6.54628 1.03277 6.68018 0.915234 6.96434C0.695045 7.49101 0.52544 8.04 0.412371 8.60832C0.300789 9.16326 0.242765 9.73753 0.242765 10.3252C0.242765 12.5509 1.07591 14.5817 2.44763 16.1245C3.83422 17.6837 5.77129 18.743 7.95533 18.9974C8.26032 19.0316 8.53555 18.8129 8.57126 18.5079C8.60548 18.2029 8.38678 17.9277 8.08179 17.892C6.17894 17.6703 4.48884 16.7464 3.2778 15.3851C2.08164 14.0401 1.35561 12.2682 1.35561 10.3252C1.35561 9.81192 1.4062 9.31055 1.5029 8.82554C1.60407 8.32416 1.75136 7.8451 1.94179 7.38984ZM5.83526 8.22894C5.83824 8.2468 5.84568 8.26465 5.85461 8.28101C5.86651 8.32118 5.87543 8.3673 5.87841 8.41938C5.87841 8.42384 5.87841 8.42979 5.87841 8.43425L6.10901 11.8115C6.07331 11.9201 6.0257 12.0034 5.96619 12.057C5.91114 12.1075 5.84122 12.1343 5.75344 12.1373C5.74749 12.1373 5.74005 12.1373 5.7341 12.1373L4.76556 12.2042C4.76408 12.2042 4.7611 12.2042 4.75812 12.2042C4.60786 12.2221 4.49628 12.1894 4.41743 12.1105C4.32816 12.0212 4.27014 11.871 4.2389 11.6672V11.6642L3.73603 8.63808C3.73603 8.63361 3.73603 8.62766 3.73454 8.6232C3.70181 8.45211 3.73306 8.33606 3.8134 8.26465C3.90712 8.18282 4.06632 8.13968 4.27758 8.1248C4.28204 8.1248 4.2865 8.1248 4.29246 8.1248L5.38299 8.05041V8.04892C5.54961 8.03702 5.67459 8.06231 5.75344 8.1248C5.78914 8.15158 5.81444 8.1858 5.83526 8.22894ZM7.15789 11.8918C7.1802 11.868 7.19359 11.8383 7.19954 11.8055L8.56382 8.89844C8.71706 8.59791 8.87179 8.58005 9.02949 8.65891C9.14107 8.71544 9.26009 8.81066 9.3806 8.90587C9.4535 8.9639 9.52492 9.02043 9.58591 9.06507L9.86859 9.2674L9.87008 9.26889C10.0754 9.41171 10.3 9.48164 10.5098 9.48461C10.6482 9.48759 10.7791 9.46081 10.8966 9.40576C11.0171 9.35072 11.1213 9.26889 11.1957 9.16028C11.276 9.04424 11.3251 8.89992 11.3281 8.73478C11.3281 8.73478 11.2909 8.63213 11.2835 8.62469L10.364 7.67252C10.5425 7.65764 10.7032 7.67103 10.855 7.70674C11.0871 7.76179 11.3073 7.87039 11.5483 8.01322C11.5765 8.03256 11.6108 8.04148 11.6465 8.04L12.6254 7.97305L12.7519 9.82234L12.8292 11.0051L12.2594 11.0438C12.2044 11.0468 12.1538 11.0795 12.13 11.1316L11.5066 12.414C11.4159 12.6015 11.3355 12.7622 11.2284 12.8722C11.1287 12.9764 10.9918 13.0448 10.7761 13.0657C10.6958 13.0731 10.6169 13.0657 10.5425 13.0404C10.4964 13.0255 10.4503 13.0032 10.4042 12.9734L10.8044 12.0852C10.8401 12.0064 10.8044 11.9141 10.7255 11.8799C10.6467 11.8442 10.5544 11.8799 10.5202 11.9588L10.0858 12.9258C9.90727 13.0329 9.74064 13.0731 9.5874 13.0523C9.44755 13.0314 9.31217 12.9585 9.17976 12.8321L9.82098 11.6553C9.86115 11.5809 9.83437 11.4857 9.75849 11.444C9.68411 11.4038 9.58889 11.4306 9.54723 11.5065L8.87179 12.7458C8.74235 12.8098 8.61589 12.8306 8.49241 12.8053C8.37488 12.7815 8.25288 12.7145 8.1294 12.603L8.72599 11.2655C8.76169 11.1866 8.72599 11.0929 8.64714 11.0587C8.56828 11.023 8.47456 11.0587 8.44034 11.139L7.82143 12.5226C7.73216 12.5821 7.62653 12.603 7.52388 12.594C7.43312 12.5851 7.34386 12.5524 7.26947 12.5018C7.19806 12.4527 7.13855 12.3858 7.10879 12.3084C7.07457 12.2236 7.07011 12.1224 7.10879 12.0093L7.15789 11.8918ZM6.37681 11.987L6.7919 11.9588C6.74726 12.1269 6.76065 12.2816 6.81421 12.417C6.86926 12.5554 6.96745 12.6699 7.08796 12.7532C7.20549 12.8336 7.34534 12.8856 7.49115 12.899C7.63248 12.9124 7.77679 12.8901 7.90921 12.8246C8.07732 12.9779 8.25139 13.0701 8.42695 13.1073C8.60399 13.143 8.77955 13.1207 8.95362 13.0463C9.13512 13.2219 9.33002 13.3275 9.53979 13.3573C9.75254 13.3885 9.97273 13.3409 10.2018 13.2144C10.2792 13.2665 10.3596 13.3067 10.4429 13.3349C10.5604 13.3751 10.6809 13.3885 10.8059 13.3751C11.1049 13.3454 11.2998 13.2442 11.4501 13.0895C11.5944 12.9422 11.6851 12.7607 11.7878 12.5494L12.371 11.3488L12.8843 11.3131C12.9245 11.4604 12.9855 11.4901 13.0688 11.5853C13.2562 11.7951 13.4184 11.9052 13.707 11.8888C14.1266 11.865 14.8704 11.9201 15.1115 11.6017C15.2335 11.4395 15.3064 11.1866 15.3198 10.8191C15.3198 10.8147 15.3198 10.8102 15.3212 10.8057L15.3555 7.92246C15.3807 7.61003 15.3138 7.39431 15.1799 7.25446C15.0445 7.11163 14.8496 7.05659 14.6175 7.06254C14.6101 7.06254 14.6041 7.06254 14.5982 7.06254L13.4139 7.14436V7.14585C13.1908 7.15775 13.0003 7.20983 12.8605 7.31397C12.7474 7.39728 12.6715 7.51035 12.6373 7.65913L11.6718 7.72459C11.4173 7.5773 11.1823 7.46572 10.9264 7.40323C10.675 7.34372 10.4086 7.3348 10.0962 7.39431L9.74362 7.03129C9.73767 7.02385 9.73172 7.0179 9.72279 7.01195C9.6246 6.93013 9.51599 6.86615 9.40143 6.81557C9.28092 6.76201 9.15298 6.72481 9.02056 6.69952C8.81079 6.66084 8.59209 6.65489 8.38083 6.67274C8.1413 6.69357 7.91069 6.74564 7.71282 6.8111C7.33493 6.93905 7.01804 7.19495 6.71156 7.4434C6.64312 7.49845 6.57468 7.55499 6.49286 7.61598C6.48988 7.61747 6.4869 7.62045 6.48393 7.62194L6.0376 7.9671C6.01231 7.93585 5.98255 7.90759 5.94982 7.88229C5.807 7.77071 5.6121 7.72459 5.36513 7.74096V7.73947L4.2746 7.81386C4.27014 7.81386 4.26568 7.81386 4.2627 7.81534C3.983 7.8332 3.75984 7.90015 3.61106 8.03256C3.44592 8.17985 3.37748 8.39111 3.43253 8.68271C3.43253 8.68569 3.43402 8.68717 3.43402 8.69015L3.93688 11.7133C3.97705 11.9841 4.06483 12.1923 4.20319 12.3307C4.35048 12.4795 4.54537 12.5435 4.79383 12.5152L5.76236 12.4482H5.76385C5.93197 12.4453 6.07182 12.3902 6.18489 12.2861C6.26225 12.2117 6.32771 12.1105 6.37681 11.987ZM14.1638 10.2657C14.0477 10.2731 13.9599 10.3743 13.9674 10.4918C13.9748 10.6079 14.076 10.6971 14.1935 10.6882C14.3096 10.6808 14.3973 10.5796 14.3899 10.4636C14.3825 10.3475 14.2813 10.2568 14.1638 10.2657ZM4.98129 10.8935C4.86524 10.901 4.77747 11.0021 4.7849 11.1182C4.79234 11.2342 4.89351 11.3235 5.01105 11.3146C5.12709 11.3071 5.21636 11.206 5.20743 11.0899C5.19999 10.9739 5.09882 10.8861 4.98129 10.8935ZM13.0375 9.43998L12.9304 7.88676C12.9245 7.80493 12.9765 7.70227 13.042 7.65318C13.1283 7.5892 13.2622 7.55647 13.4288 7.54755L14.6175 7.46721C14.7261 7.45977 14.8749 7.4806 14.9538 7.56243C15.0267 7.6383 15.0609 7.77666 15.043 7.99536C15.043 7.99983 15.043 8.00429 15.043 8.00875L15.0088 10.709V10.7135C14.9984 11.0125 14.9463 11.2074 14.863 11.319C14.7886 11.4187 13.5225 11.6225 13.3038 11.3756C13.2175 11.2774 13.167 11.1197 13.1476 10.9114H13.1491L13.042 9.43701L13.0375 9.43998ZM2.61426 4.46639L6.21762 5.11208L5.47076 4.05279C6.6089 2.83878 7.87499 2.40286 9.38804 2.85366C7.78423 0.866005 5.65227 0.86303 3.98449 1.93719L3.22424 0.855591L2.61426 4.46639ZM12.6983 14.4582L13.4452 15.5175C12.307 16.7315 11.0409 17.1674 9.52789 16.7166C11.1332 18.7028 13.2652 18.7058 14.9329 17.6316L15.6947 18.7132L16.3032 15.1039L12.6983 14.4582ZM16.6647 12.9868C16.5308 13.2635 16.6468 13.5953 16.9236 13.7277C17.2003 13.8616 17.5321 13.7456 17.6645 13.4688C17.9442 12.8886 18.1614 12.2727 18.3072 11.627C18.45 10.9977 18.5259 10.349 18.5259 9.68695C18.5259 7.50738 17.7255 5.51229 16.4014 3.98138C15.0609 2.42964 13.1833 1.35548 11.0573 1.04602C10.7538 1.00288 10.4726 1.21414 10.4295 1.51765C10.3863 1.82115 10.5976 2.10234 10.9011 2.14548C12.7548 2.41477 14.3929 3.35206 15.5637 4.70592C16.7153 6.04193 17.413 7.78113 17.413 9.68695C17.413 10.2746 17.3476 10.8429 17.2256 11.3845C17.0976 11.9424 16.9087 12.4795 16.6647 12.9868Z" fill="#6FCF97"/>
</svg>
