<svg width="16" height="15" viewBox="0 0 16 15" fill="none" xmlns="http://www.w3.org/2000/svg">
<path d="M7.99151 1.89697C6.81613 1.89697 5.66715 2.24551 4.68986 2.89851C3.71258 3.55152 2.95087 4.47966 2.50108 5.56556C2.05128 6.65146 1.93359 7.84636 2.1629 8.99915C2.3922 10.1519 2.9582 11.2108 3.78931 12.042C4.62043 12.8731 5.67933 13.4391 6.83212 13.6684C7.98491 13.8977 9.17981 13.78 10.2657 13.3302C11.3516 12.8804 12.2798 12.1187 12.9328 11.1414C13.5858 10.1641 13.9343 9.01514 13.9343 7.83977C13.9343 7.05935 13.7806 6.28657 13.4819 5.56556C13.1833 4.84455 12.7455 4.18942 12.1937 3.63758C11.6419 3.08574 10.9867 2.64799 10.2657 2.34934C9.5447 2.05069 8.77192 1.89697 7.99151 1.89697ZM10.3686 8.43405H7.99151C7.83389 8.43405 7.68274 8.37144 7.57129 8.25999C7.45984 8.14854 7.39723 7.99738 7.39723 7.83977V5.46265C7.39723 5.30504 7.45984 5.15388 7.57129 5.04243C7.68274 4.93098 7.83389 4.86837 7.99151 4.86837C8.14912 4.86837 8.30028 4.93098 8.41173 5.04243C8.52317 5.15388 8.58579 5.30504 8.58579 5.46265V7.24549H10.3686C10.5262 7.24549 10.6774 7.3081 10.7888 7.41955C10.9003 7.531 10.9629 7.68216 10.9629 7.83977C10.9629 7.99738 10.9003 8.14854 10.7888 8.25999C10.6774 8.37144 10.5262 8.43405 10.3686 8.43405Z" fill="#F6655A"/>
</svg>
