<svg width="19" height="19" viewBox="0 0 19 19" fill="none" xmlns="http://www.w3.org/2000/svg">
<path d="M14 6.5C14 5.30653 13.5259 4.16193 12.682 3.31802C11.8381 2.47411 10.6935 2 9.5 2C8.30653 2 7.16193 2.47411 6.31802 3.31802C5.47411 4.16193 5 5.30653 5 6.5C5 11.75 2.75 13.25 2.75 13.25H16.25C16.25 13.25 14 11.75 14 6.5Z" stroke="white" stroke-width="2" stroke-linecap="round" stroke-linejoin="round"/>
<path d="M10.7981 16.25C10.6663 16.4773 10.477 16.666 10.2493 16.7971C10.0216 16.9283 9.76341 16.9973 9.50062 16.9973C9.23784 16.9973 8.97967 16.9283 8.75196 16.7971C8.52424 16.666 8.33498 16.4773 8.20312 16.25" stroke="white" stroke-width="2" stroke-linecap="round" stroke-linejoin="round"/>
</svg>
