<svg width="25" height="25" viewBox="0 0 25 25" fill="none" xmlns="http://www.w3.org/2000/svg">
<g clip-path="url(#clip0_1742_2607)">
<path d="M12.5427 0.947266C6.32452 0.947266 1.22404 5.7428 0.742188 11.8381L7.08763 14.4634C7.64433 14.0838 8.30269 13.881 8.97654 13.8817C9.03797 13.8817 9.10015 13.8854 9.16158 13.8854L11.9838 9.79892V9.74118C11.9838 7.27791 13.9845 5.27724 16.4478 5.27724C18.9111 5.27724 20.9154 7.28161 20.9154 9.74488C20.9139 10.929 20.4425 12.064 19.6049 12.9009C18.7673 13.7379 17.6319 14.2082 16.4478 14.2088H16.3479L12.3228 17.0807C12.3228 17.1347 12.3265 17.185 12.3265 17.2391C12.3265 19.0895 10.8307 20.5891 8.98024 20.5891C7.3689 20.5891 6.00403 19.4322 5.69168 17.8986L1.15076 16.0171C2.55782 20.9902 7.11872 24.6333 12.5427 24.6333C19.0806 24.6333 24.3816 19.333 24.3816 12.7907C24.3816 6.24834 19.0813 0.948006 12.5427 0.948006V0.947266ZM8.1594 18.9192L6.70571 18.3175C6.97342 18.8737 7.4355 19.3126 8.0047 19.5514C8.62081 19.8064 9.31291 19.8068 9.92933 19.5525C10.5458 19.2982 11.0362 18.8099 11.2933 18.1946C11.4208 17.8901 11.4868 17.5633 11.4874 17.2332C11.488 16.903 11.4233 16.576 11.297 16.2709C11.1723 15.9643 10.9877 15.6856 10.754 15.4513C10.5203 15.2169 10.2421 15.0315 9.9358 14.9061C9.34564 14.6596 8.68348 14.6484 8.08538 14.875L9.58496 15.496C10.5294 15.8927 10.9765 16.9763 10.5834 17.9208C10.1904 18.8652 9.10311 19.3123 8.15866 18.9192H8.1594ZM19.424 9.73674C19.4232 8.94828 19.1099 8.19229 18.5527 7.63442C17.9955 7.07654 17.2399 6.7623 16.4515 6.76053C15.6621 6.76053 14.9051 7.0741 14.347 7.63225C13.7888 8.19039 13.4753 8.9474 13.4753 9.73674C13.4753 10.5261 13.7888 11.2831 14.347 11.8412C14.9051 12.3994 15.6621 12.713 16.4515 12.713C17.2401 12.7118 17.9961 12.3977 18.5534 11.8397C19.1107 11.2817 19.4238 10.5254 19.424 9.73674V9.73674ZM14.2236 9.73304C14.2236 8.49548 15.2221 7.497 16.4559 7.497C17.6898 7.497 18.6957 8.49548 18.6957 9.73304C18.6957 10.9669 17.6898 11.9691 16.4559 11.9691C15.2221 11.9691 14.2236 10.9669 14.2236 9.73304V9.73304Z" fill="url(#paint0_linear_1742_2607)"/>
<path d="M12.5427 0.947266C6.32452 0.947266 1.22404 5.7428 0.742188 11.8381L7.08763 14.4634C7.64433 14.0838 8.30269 13.881 8.97654 13.8817C9.03797 13.8817 9.10015 13.8854 9.16158 13.8854L11.9838 9.79892V9.74118C11.9838 7.27791 13.9845 5.27724 16.4478 5.27724C18.9111 5.27724 20.9154 7.28161 20.9154 9.74488C20.9139 10.929 20.4425 12.064 19.6049 12.9009C18.7673 13.7379 17.6319 14.2082 16.4478 14.2088H16.3479L12.3228 17.0807C12.3228 17.1347 12.3265 17.185 12.3265 17.2391C12.3265 19.0895 10.8307 20.5891 8.98024 20.5891C7.3689 20.5891 6.00403 19.4322 5.69168 17.8986L1.15076 16.0171C2.55782 20.9902 7.11872 24.6333 12.5427 24.6333C19.0806 24.6333 24.3816 19.333 24.3816 12.7907C24.3816 6.24834 19.0813 0.948006 12.5427 0.948006V0.947266ZM8.1594 18.9192L6.70571 18.3175C6.97342 18.8737 7.4355 19.3126 8.0047 19.5514C8.62081 19.8064 9.31291 19.8068 9.92933 19.5525C10.5458 19.2982 11.0362 18.8099 11.2933 18.1946C11.4208 17.8901 11.4868 17.5633 11.4874 17.2332C11.488 16.903 11.4233 16.576 11.297 16.2709C11.1723 15.9643 10.9877 15.6856 10.754 15.4513C10.5203 15.2169 10.2421 15.0315 9.9358 14.9061C9.34564 14.6596 8.68348 14.6484 8.08538 14.875L9.58496 15.496C10.5294 15.8927 10.9765 16.9763 10.5834 17.9208C10.1904 18.8652 9.10311 19.3123 8.15866 18.9192H8.1594ZM19.424 9.73674C19.4232 8.94828 19.1099 8.19229 18.5527 7.63442C17.9955 7.07654 17.2399 6.7623 16.4515 6.76053C15.6621 6.76053 14.9051 7.0741 14.347 7.63225C13.7888 8.19039 13.4753 8.9474 13.4753 9.73674C13.4753 10.5261 13.7888 11.2831 14.347 11.8412C14.9051 12.3994 15.6621 12.713 16.4515 12.713C17.2401 12.7118 17.9961 12.3977 18.5534 11.8397C19.1107 11.2817 19.4238 10.5254 19.424 9.73674V9.73674ZM14.2236 9.73304C14.2236 8.49548 15.2221 7.497 16.4559 7.497C17.6898 7.497 18.6957 8.49548 18.6957 9.73304C18.6957 10.9669 17.6898 11.9691 16.4559 11.9691C15.2221 11.9691 14.2236 10.9669 14.2236 9.73304V9.73304Z" fill="black" fill-opacity="0.2"/>
</g>
<defs>
<linearGradient id="paint0_linear_1742_2607" x1="20.3522" y1="21.9417" x2="4.46828" y2="4.20829" gradientUnits="userSpaceOnUse">
<stop stop-color="#202428"/>
<stop offset="1" stop-color="#131314"/>
</linearGradient>
<clipPath id="clip0_1742_2607">
<rect width="23.6853" height="23.6853" fill="white" transform="translate(0.71875 0.947266)"/>
</clipPath>
</defs>
</svg>
