<svg width="23" height="24" viewBox="0 0 23 24" fill="none" xmlns="http://www.w3.org/2000/svg">
<path d="M18.4857 12.3154C17.9796 12.318 17.4835 12.457 17.0497 12.7177L15.0173 10.6853L16.6473 9.05526C16.9139 8.78863 17.0636 8.42707 17.0636 8.05006C17.0636 7.67306 16.9139 7.31149 16.6473 7.04487L12.382 2.77956C12.1154 2.51302 11.7538 2.36328 11.3768 2.36328C10.9998 2.36328 10.6383 2.51302 10.3717 2.77956L6.10634 7.04487C5.8398 7.31149 5.69006 7.67306 5.69006 8.05006C5.69006 8.42707 5.8398 8.78863 6.10634 9.05526L7.7364 10.6853L5.70398 12.7177C5.10177 12.3604 4.38984 12.2353 3.70187 12.3657C3.0139 12.4962 2.39723 12.8733 1.96766 13.4263C1.53809 13.9793 1.32517 14.6701 1.36889 15.369C1.41261 16.0678 1.70996 16.7267 2.20509 17.2218C2.70023 17.717 3.35909 18.0143 4.05795 18.058C4.75682 18.1017 5.4476 17.8888 6.00058 17.4592C6.55357 17.0297 6.9307 16.413 7.06117 15.725C7.19165 15.0371 7.06648 14.3251 6.70917 13.7229L8.74159 11.6905L10.3717 13.3206C10.4597 13.4066 10.5586 13.4807 10.666 13.5409V16.5807H8.5333V22.2678H14.2204V16.5807H12.0877V13.5402C12.195 13.4802 12.294 13.4063 12.382 13.3206L14.0121 11.6905L16.0445 13.7229C15.7297 14.263 15.6021 14.8919 15.6817 15.512C15.7612 16.132 16.0434 16.7084 16.4844 17.1515C16.9254 17.5945 17.5004 17.8795 18.1201 17.962C18.7397 18.0445 19.3693 17.92 19.9108 17.6077C20.4524 17.2955 20.8756 16.813 21.1146 16.2354C21.3536 15.6578 21.3951 15.0174 21.2325 14.4138C21.07 13.8101 20.7126 13.2771 20.2158 12.8977C19.719 12.5182 19.1108 12.3135 18.4857 12.3154ZM5.68976 15.1589C5.68976 15.4401 5.60637 15.715 5.45015 15.9488C5.29392 16.1826 5.07187 16.3649 4.81207 16.4725C4.55228 16.5801 4.26641 16.6082 3.99061 16.5534C3.71482 16.4985 3.46148 16.3631 3.26264 16.1643C3.0638 15.9654 2.92839 15.7121 2.87353 15.4363C2.81867 15.1605 2.84683 14.8746 2.95444 14.6148C3.06205 14.355 3.24428 14.133 3.47809 13.9768C3.7119 13.8205 3.98679 13.7372 4.26799 13.7372C4.64495 13.7375 5.00636 13.8874 5.27291 14.154C5.53947 14.4205 5.68938 14.782 5.68976 15.1589ZM12.7986 18.0025V20.846H9.95507V18.0025H12.7986ZM11.3768 12.3154L7.11153 8.05006L11.3768 3.78475L15.6422 8.05006L11.3768 12.3154ZM18.4857 16.5807C18.2045 16.5807 17.9296 16.4973 17.6958 16.3411C17.462 16.1849 17.2798 15.9628 17.1722 15.703C17.0645 15.4432 17.0364 15.1573 17.0912 14.8815C17.1461 14.6058 17.2815 14.3524 17.4804 14.1536C17.6792 13.9547 17.9325 13.8193 18.2083 13.7645C18.4841 13.7096 18.77 13.7378 19.0298 13.8454C19.2896 13.953 19.5116 14.1352 19.6679 14.369C19.8241 14.6028 19.9075 14.8777 19.9075 15.1589C19.9071 15.5359 19.7572 15.8973 19.4906 16.1639C19.2241 16.4304 18.8627 16.5803 18.4857 16.5807Z" fill="white"/>
</svg>
