<svg width="25" height="24" viewBox="0 0 25 24" fill="none" xmlns="http://www.w3.org/2000/svg">
<g clip-path="url(#clip0_1811_96811)">
<path d="M20.8995 4.49295C19.3695 3.80295 17.7295 3.29295 16.0145 3.00295C15.9992 3.00002 15.9834 3.00191 15.9693 3.00836C15.9551 3.01481 15.9433 3.0255 15.9355 3.03895C15.7255 3.40795 15.4915 3.88895 15.3275 4.26895C13.5086 3.99719 11.6594 3.99719 9.84051 4.26895C9.65785 3.84781 9.45186 3.43717 9.22351 3.03895C9.21577 3.02533 9.20406 3.0144 9.18995 3.00761C9.17583 3.00082 9.15998 2.9985 9.14451 3.00095C7.43051 3.29095 5.79051 3.80095 4.25951 4.49195C4.24634 4.49747 4.23517 4.5069 4.22751 4.51895C1.11551 9.09395 0.262512 13.556 0.681512 17.962C0.682678 17.9727 0.686027 17.9832 0.691357 17.9926C0.696686 18.0021 0.703884 18.0104 0.712512 18.017C2.5289 19.3394 4.55485 20.3468 6.70551 20.997C6.7205 21.0016 6.73654 21.0016 6.75152 20.9969C6.76651 20.9923 6.77975 20.9832 6.78951 20.9709C7.25231 20.352 7.66241 19.6954 8.01551 19.0079C8.02041 18.9986 8.02324 18.9882 8.02379 18.9776C8.02435 18.967 8.02263 18.9565 8.01874 18.9466C8.01485 18.9367 8.00889 18.9278 8.00126 18.9205C7.99363 18.9131 7.98451 18.9075 7.97451 18.9039C7.32852 18.6607 6.7026 18.3671 6.10251 18.0259C6.09173 18.0198 6.08264 18.0111 6.07607 18.0005C6.06949 17.99 6.06564 17.978 6.06485 17.9656C6.06405 17.9532 6.06635 17.9408 6.07153 17.9295C6.0767 17.9183 6.0846 17.9084 6.09451 17.9009C6.22051 17.8079 6.34651 17.711 6.46651 17.614C6.47731 17.6052 6.49032 17.5997 6.5041 17.5979C6.51787 17.5961 6.53186 17.5982 6.54451 17.604C10.4715 19.368 14.7245 19.368 18.6055 17.604C18.6182 17.5979 18.6323 17.5955 18.6463 17.5971C18.6603 17.5987 18.6735 17.6042 18.6845 17.6129C18.8045 17.7109 18.9295 17.8079 19.0565 17.9009C19.0665 17.9083 19.0745 17.918 19.0799 17.9292C19.0852 17.9403 19.0877 17.9527 19.0871 17.9651C19.0865 17.9774 19.0829 17.9895 19.0765 18.0001C19.0701 18.0107 19.0612 18.0196 19.0505 18.0259C18.4525 18.3699 17.8305 18.661 17.1775 18.903C17.1675 18.9066 17.1583 18.9123 17.1507 18.9198C17.1431 18.9272 17.1371 18.9362 17.1332 18.9462C17.1294 18.9561 17.1276 18.9668 17.1282 18.9774C17.1288 18.9881 17.1316 18.9985 17.1365 19.0079C17.4965 19.695 17.9085 20.3489 18.3615 20.9699C18.3709 20.9827 18.3841 20.9922 18.3991 20.9972C18.4141 21.0022 18.4303 21.0025 18.4455 20.9979C20.5999 20.3496 22.6291 19.3417 24.4475 18.017C24.4564 18.0107 24.4638 18.0027 24.4693 17.9934C24.4749 17.9841 24.4783 17.9737 24.4795 17.9629C24.9795 12.8689 23.6415 8.44295 20.9305 4.52095C20.9239 4.5082 20.9129 4.49827 20.8995 4.49295ZM8.60251 15.2789C7.42051 15.2789 6.44551 14.2099 6.44551 12.8989C6.44551 11.5869 7.40151 10.5189 8.60251 10.5189C9.81251 10.5189 10.7785 11.5959 10.7595 12.8989C10.7595 14.2109 9.80351 15.2789 8.60251 15.2789ZM16.5775 15.2789C15.3945 15.2789 14.4205 14.2099 14.4205 12.8989C14.4205 11.5869 15.3755 10.5189 16.5775 10.5189C17.7875 10.5189 18.7535 11.5959 18.7345 12.8989C18.7345 14.2109 17.7885 15.2789 16.5775 15.2789Z" fill="#98A2B3"/>
</g>
<defs>
<clipPath id="clip0_1811_96811">
<rect width="24" height="24" fill="white" transform="translate(0.582031)"/>
</clipPath>
</defs>
</svg>
