<svg width="23" height="23" viewBox="0 0 23 23" fill="none" xmlns="http://www.w3.org/2000/svg">
<path d="M17.653 12.1218C17.4597 11.6619 17.2393 11.1408 17.0253 10.4974C16.4637 8.81336 18.258 6.97643 18.2751 6.95937L17.2699 5.95418C17.1703 6.0537 14.8365 8.42664 15.6761 10.9467C15.9078 11.642 16.1396 12.1908 16.3429 12.6742C16.8173 13.6115 17.0635 14.6477 17.0616 15.6983C16.9783 16.5451 16.6531 17.3501 16.125 18.0172C15.5969 18.6844 14.888 19.1856 14.083 19.461C14.3373 18.4641 14.3335 17.4189 14.0719 16.4239C13.8104 15.4288 13.2997 14.5169 12.588 13.7739L11.8458 13.0318L11.4321 13.9964C10.1269 17.0419 8.57359 18.3712 7.6601 18.9257C7.09932 18.5823 6.62808 18.1106 6.28513 17.5495C5.94218 16.9885 5.73732 16.354 5.6874 15.6983C5.73643 14.8034 5.96082 13.9269 6.34781 13.1185C6.80676 12.144 7.06565 11.0874 7.10917 10.0112V8.74725C7.73048 9.00316 8.53094 9.67353 8.53094 11.433V13.2834L9.77001 11.9086C11.9823 9.45316 11.5209 6.52928 10.6273 4.58074C11.3066 4.80716 11.8899 5.25557 12.2833 5.85377C12.6767 6.45198 12.8574 7.16517 12.7963 7.87854H14.218C14.218 3.94237 10.9629 2.90234 9.24183 2.90234H7.82005L8.67312 4.03905C8.77051 4.17056 10.7077 6.8307 9.63495 9.50434C9.39623 8.83246 8.95877 8.24911 8.38065 7.83175C7.80254 7.41438 7.11115 7.18277 6.39828 7.16766H5.6874V10.0112C5.63836 10.9061 5.41397 11.7826 5.02698 12.591C4.56803 13.5655 4.30914 14.622 4.26562 15.6983C4.26562 18.4338 6.98334 21.3854 11.3745 21.3854C15.7656 21.3854 18.4833 18.4338 18.4833 15.6983C18.4844 14.4582 18.2003 13.2346 17.653 12.1218ZM9.12453 19.6266C10.4359 18.5411 11.4952 17.1832 12.229 15.6471C12.6207 16.2796 12.8433 17.0022 12.8752 17.7456C12.9072 18.4889 12.7476 19.228 12.4117 19.8918C12.0678 19.9381 11.7214 19.962 11.3745 19.9636C10.6115 19.9689 9.85245 19.8552 9.12453 19.6266Z" fill="white"/>
</svg>
