<svg width="43" height="43" viewBox="0 0 43 43" fill="none" xmlns="http://www.w3.org/2000/svg">
<g opacity="0.4">
<path d="M21.4336 20.7258V41.5289C21.4336 41.5289 30.0305 35.4914 36.068 33.7195C36.068 33.7195 36.3305 20.857 40.0711 14.4258L21.4336 20.7258Z" fill="#FB8C00"/>
<path d="M26.8164 38.3789C26.8164 38.3789 27.1445 19.9383 27.8008 19.0195C28.457 18.0352 34.1008 17.0508 34.1008 17.0508C34.1008 17.0508 31.8039 34.3102 32.3289 35.4258C32.3945 35.3602 30.032 36.3445 26.8164 38.3789Z" fill="#B3690E"/>
<path d="M21.4367 41.527C21.4367 41.527 15.3992 36.4082 6.01484 33.7176C6.01484 33.7176 6.73672 23.152 3.32422 15.0801L21.4367 20.7238V41.527Z" fill="#3BAACF"/>
<path d="M9.81719 35.4238C9.81719 35.4238 15.3297 37.6551 15.7234 38.3769C16.1172 39.0988 16.1172 19.8051 16.1172 19.8051C16.1172 19.8051 8.57031 17.7051 7.91406 17.7051C7.91406 17.7051 10.2109 25.5145 9.81719 35.4238Z" fill="#E9C243"/>
<path opacity="0.3" d="M21.432 20.7258V24.2039L38.2977 18.4289C38.757 16.9852 39.3477 15.607 40.0039 14.4258L21.432 20.7258ZM4.50078 18.6914C4.17266 17.4445 3.77891 16.2633 3.25391 15.082L21.3664 20.7258V24.2039L4.50078 18.6914Z" fill="black"/>
<path d="M1.8125 13.2441L20.5156 17.3785L41.1875 12.391L20.9094 11.2754L1.8125 13.2441Z" fill="#4FC7E8"/>
<path d="M1.8125 13.2422L3.32187 17.3766L20.5156 22.2328V17.3766L1.8125 13.2422Z" fill="#3BAACF"/>
<path d="M20.5195 22.2332C20.5195 22.2332 36.1383 16.4582 40.0102 16.1957C40.0102 16.1957 40.2727 13.8988 41.1914 12.4551L20.5195 17.377V22.2332Z" fill="#076170"/>
<path d="M7.39062 14.491L11.1969 18.1004L15.3969 16.1973L21.5 14.3598L29.1125 15.2785L33.1156 16.066L36.3312 13.5723L7.39062 14.491Z" fill="#F0AE11"/>
<path d="M15.3969 16.1977L21.5 14.3602L29.1125 15.2789L36.3312 13.5727L21.1062 12.1289L7.39062 14.4914L15.3969 16.1977Z" fill="#F0AE11"/>
<path d="M7.38672 14.4902V19.084L15.0648 21.184L15.393 16.1965L7.38672 14.4902Z" fill="#F8D048"/>
<path d="M29.1133 15.2785L29.2445 19.6754L35.807 17.7066L36.332 13.5723L29.1133 15.2785Z" fill="#C47116"/>
<path d="M24.9813 12.191C24.9813 12.191 24.9813 7.59727 29.4438 3.59414C29.4438 3.59414 26.7532 4.57852 25.4407 4.31602C23.8657 4.05352 23.3407 2.15039 23.3407 2.15039C23.3407 2.15039 19.5345 10.4191 20.6501 11.4691C21.7657 12.5848 24.9813 12.191 24.9813 12.191Z" fill="#EA9F07"/>
<path d="M19.1391 14.8848C19.1391 14.8848 16.5797 9.63477 11.1328 6.87852C11.1328 6.87852 15.3984 6.48477 16.3828 5.95977C17.6297 5.36914 18.3516 3.72852 18.3516 3.72852C18.3516 3.72852 23.0766 11.9973 22.6828 13.2441C22.2891 14.491 19.1391 14.8848 19.1391 14.8848Z" fill="#F8D048"/>
<path d="M21.891 14.2924C21.891 14.2924 17.8879 15.8674 12.7691 15.8674C2.00662 15.8018 0.497245 8.05805 11.1285 8.77992C19.8566 9.43617 21.891 14.2924 21.891 14.2924Z" fill="#EA9F07"/>
<path d="M21.1727 14.2276C21.1727 14.2276 25.8977 14.6213 30.2946 13.5057C39.4821 11.1432 36.0696 4.18696 27.4071 7.14008C20.3196 9.56821 21.1727 14.2276 21.1727 14.2276Z" fill="#F0AE11"/>
<path d="M21.8919 14.2928C21.8919 14.2928 19.3982 15.2771 16.1825 15.2771C9.48879 15.2771 8.50441 10.4209 15.1325 10.8803C20.5794 11.274 21.8919 14.2928 21.8919 14.2928Z" fill="#824000"/>
<path d="M21.8928 14.2937C21.8928 14.2937 25.174 14.5562 28.2584 13.7687C34.6896 12.1281 32.2615 7.27184 26.2896 9.30621C21.3021 11.0125 21.8928 14.2937 21.8928 14.2937Z" fill="#824000"/>
</g>
</svg>
