<svg width="17" height="16" viewBox="0 0 17 16" fill="none" xmlns="http://www.w3.org/2000/svg">
<path d="M8.00911 2.98438H8.89771C8.9767 2.98438 9.01619 3.02387 9.01619 3.10286V13.5292C9.01619 13.6082 8.9767 13.6477 8.89771 13.6477H8.00911C7.93012 13.6477 7.89062 13.6082 7.89062 13.5292V3.10286C7.89062 3.02387 7.93012 2.98438 8.00911 2.98438Z" fill="white"/>
<path d="M3.47786 7.75391H13.4303C13.5092 7.75391 13.5487 7.7934 13.5487 7.87239V8.76099C13.5487 8.83998 13.5092 8.87948 13.4303 8.87948H3.47786C3.39887 8.87948 3.35938 8.83998 3.35938 8.76099V7.87239C3.35938 7.7934 3.39887 7.75391 3.47786 7.75391Z" fill="white"/>
</svg>
