<svg width="23" height="24" viewBox="0 0 23 24" fill="none" xmlns="http://www.w3.org/2000/svg">
<path d="M11.3732 13.2363V9.4449C11.3732 8.92358 10.9467 8.49705 10.4254 8.49705H6.63398V6.60136H11.3732V4.70566H9.0036V3.75781H7.1079V4.70566H5.68613C5.16481 4.70566 4.73828 5.13219 4.73828 5.65351V9.4449C4.73828 9.96621 5.16481 10.3927 5.68613 10.3927H9.47752V12.2884H4.73828V14.1841H7.1079V15.132H9.0036V14.1841H10.4254C10.9467 14.1841 11.3732 13.7576 11.3732 13.2363ZM18.5674 12.7813L13.2026 18.1367L10.5202 15.4543L9.18369 16.8002L13.2026 20.8191L19.9038 14.1178L18.5674 12.7813Z" fill="#6FCF97"/>
</svg>
