<svg width="21" height="20" viewBox="0 0 21 20" fill="none" xmlns="http://www.w3.org/2000/svg">
<g clip-path="url(#clip0_949_161658)">
<path d="M20.6875 17.293L16.793 13.3984C16.6172 13.2227 16.3789 13.125 16.1289 13.125H15.4922C16.5703 11.7461 17.2109 10.0117 17.2109 8.125C17.2109 3.63672 13.5742 0 9.08594 0C4.59766 0 0.960938 3.63672 0.960938 8.125C0.960938 12.6133 4.59766 16.25 9.08594 16.25C10.9727 16.25 12.707 15.6094 14.0859 14.5312V15.168C14.0859 15.418 14.1836 15.6562 14.3594 15.832L18.2539 19.7266C18.6211 20.0938 19.2148 20.0938 19.5781 19.7266L20.6836 18.6211C21.0508 18.2539 21.0508 17.6602 20.6875 17.293ZM9.08594 13.125C6.32422 13.125 4.08594 10.8906 4.08594 8.125C4.08594 5.36328 6.32031 3.125 9.08594 3.125C11.8477 3.125 14.0859 5.35938 14.0859 8.125C14.0859 10.8867 11.8516 13.125 9.08594 13.125Z" fill="white" fill-opacity="0.5"/>
</g>
<defs>
<clipPath id="clip0_949_161658">
<rect width="20" height="20" fill="white" transform="translate(0.960938)"/>
</clipPath>
</defs>
</svg>
