<svg width="24" height="24" viewBox="0 0 24 24" fill="none" xmlns="http://www.w3.org/2000/svg">
<g clip-path="url(#clip0_1811_96813)">
<path d="M12.2719 0.291016C6.12441 0.291016 1.08185 5.0321 0.605469 11.0582L6.87886 13.6537C7.42924 13.2783 8.08012 13.0779 8.74632 13.0786C8.80705 13.0786 8.86852 13.0822 8.92926 13.0822L11.7195 9.04215V8.98508C11.7195 6.54977 13.6974 4.57182 16.1327 4.57182C18.568 4.57182 20.5496 6.55343 20.5496 8.98874C20.5481 10.1594 20.0821 11.2815 19.254 12.109C18.4259 12.9364 17.3033 13.4014 16.1327 13.402H16.0339L12.0546 16.2412C12.0546 16.2946 12.0583 16.3444 12.0583 16.3978C12.0583 18.2272 10.5794 19.7098 8.74998 19.7098C7.15693 19.7098 5.80756 18.566 5.49876 17.0498L1.0094 15.1897C2.40048 20.1064 6.90959 23.7081 12.2719 23.7081C18.7356 23.7081 23.9765 18.468 23.9765 11.9999C23.9765 5.53189 18.7363 0.291747 12.2719 0.291747V0.291016ZM7.93845 18.0589L6.50127 17.464C6.76595 18.0139 7.22278 18.4478 7.78551 18.6838C8.39463 18.936 9.07887 18.9364 9.68829 18.685C10.2977 18.4336 10.7826 17.9508 11.0367 17.3425C11.1628 17.0414 11.228 16.7184 11.2287 16.392C11.2293 16.0656 11.1653 15.7422 11.0404 15.4407C10.9172 15.1375 10.7347 14.862 10.5036 14.6303C10.2725 14.3986 9.9975 14.2154 9.69468 14.0913C9.11122 13.8476 8.45659 13.8366 7.86527 14.0606L9.34782 14.6745C10.2816 15.0667 10.7235 16.138 10.335 17.0718C9.9464 18.0055 8.87145 18.4475 7.93772 18.0589H7.93845ZM19.0751 8.98069C19.0744 8.20118 18.7646 7.45377 18.2138 6.90223C17.6629 6.35069 16.9159 6.04001 16.1364 6.03827C15.356 6.03827 14.6076 6.34828 14.0558 6.90009C13.504 7.45189 13.194 8.20031 13.194 8.98069C13.194 9.76106 13.504 10.5095 14.0558 11.0613C14.6076 11.6131 15.356 11.9231 16.1364 11.9231C16.9161 11.9219 17.6634 11.6114 18.2144 11.0598C18.7654 10.5081 19.0749 9.76037 19.0751 8.98069ZM13.9338 8.97703C13.9338 7.75352 14.9209 6.76638 16.1408 6.76638C17.3606 6.76638 18.3551 7.75352 18.3551 8.97703C18.3551 10.1969 17.3606 11.1877 16.1408 11.1877C14.9209 11.1877 13.9338 10.1969 13.9338 8.97703Z" fill="#98A2B3"/>
</g>
<defs>
<clipPath id="clip0_1811_96813">
<rect width="23.4164" height="23.4164" fill="white" transform="translate(0.582031 0.291016)"/>
</clipPath>
</defs>
</svg>
