<svg width="19" height="19" viewBox="0 0 19 19" fill="none" xmlns="http://www.w3.org/2000/svg">
<g clip-path="url(#clip0_173_47597)">
<path d="M1.94325 7.38972C2.06079 7.10705 1.92689 6.78123 1.64273 6.66369C1.36005 6.54616 1.03423 6.68006 0.916698 6.96422C0.69651 7.49089 0.526905 8.03987 0.413836 8.6082C0.302254 9.16314 0.24423 9.73741 0.24423 10.3251C0.24423 12.5508 1.07738 14.5816 2.44909 16.1244C3.83569 17.6836 5.77276 18.7428 7.95679 18.9972C8.26178 19.0315 8.53702 18.8128 8.57272 18.5078C8.60694 18.2028 8.38824 17.9275 8.08325 17.8918C6.1804 17.6702 4.4903 16.7463 3.27927 15.385C2.08311 14.04 1.35708 12.2681 1.35708 10.3251C1.35708 9.8118 1.40766 9.31042 1.50437 8.82541C1.60553 8.32404 1.75282 7.84498 1.94325 7.38972ZM5.83673 8.22882C5.8397 8.24667 5.84714 8.26453 5.85607 8.28089C5.86797 8.32106 5.8769 8.36718 5.87987 8.41925C5.87987 8.42372 5.87987 8.42967 5.87987 8.43413L6.11048 11.8114C6.07477 11.92 6.02716 12.0033 5.96765 12.0568C5.91261 12.1074 5.84268 12.1342 5.7549 12.1372C5.74895 12.1372 5.74151 12.1372 5.73556 12.1372L4.76703 12.2041C4.76554 12.2041 4.76257 12.2041 4.75959 12.2041C4.60933 12.222 4.49774 12.1892 4.41889 12.1104C4.32963 12.0211 4.2716 11.8709 4.24036 11.667V11.6641L3.7375 8.63796C3.7375 8.63349 3.7375 8.62754 3.73601 8.62308C3.70328 8.45198 3.73452 8.33594 3.81486 8.26453C3.90859 8.1827 4.06778 8.13955 4.27904 8.12468C4.28351 8.12468 4.28797 8.12468 4.29392 8.12468L5.38445 8.05029V8.0488C5.55108 8.0369 5.67605 8.06219 5.7549 8.12468C5.79061 8.15146 5.8159 8.18568 5.83673 8.22882ZM7.15935 11.8917C7.18167 11.8679 7.19506 11.8381 7.20101 11.8054L8.56529 8.89831C8.71853 8.59779 8.87325 8.57993 9.03096 8.65878C9.14254 8.71532 9.26156 8.81054 9.38207 8.90575C9.45497 8.96378 9.52638 9.02031 9.58738 9.06494L9.87005 9.26728L9.87154 9.26877C10.0769 9.41159 10.3015 9.48152 10.5113 9.48449C10.6496 9.48747 10.7806 9.46069 10.8981 9.40564C11.0186 9.35059 11.1227 9.26877 11.1971 9.16016C11.2775 9.04411 11.3266 8.8998 11.3295 8.73466C11.3295 8.73466 11.2924 8.632 11.2849 8.62457L10.3655 7.6724C10.544 7.65752 10.7047 7.67091 10.8564 7.70662C11.0885 7.76166 11.3087 7.87027 11.5497 8.01309C11.578 8.03244 11.6122 8.04136 11.6479 8.03987L12.6269 7.97293L12.7533 9.82221L12.8307 11.005L12.2609 11.0437C12.2058 11.0466 12.1553 11.0794 12.1315 11.1314L11.5081 12.4139C11.4173 12.6014 11.337 12.762 11.2299 12.8721C11.1302 12.9763 10.9933 13.0447 10.7776 13.0655C10.6972 13.073 10.6184 13.0655 10.544 13.0402C10.4979 13.0254 10.4518 13.003 10.4056 12.9733L10.8059 12.0851C10.8416 12.0063 10.8059 11.914 10.727 11.8798C10.6482 11.8441 10.5559 11.8798 10.5217 11.9586L10.0873 12.9257C9.90874 13.0328 9.74211 13.073 9.58887 13.0521C9.44902 13.0313 9.31363 12.9584 9.18122 12.832L9.82245 11.6551C9.86262 11.5807 9.83584 11.4855 9.75996 11.4439C9.68557 11.4037 9.59035 11.4305 9.5487 11.5064L8.87325 12.7457C8.74382 12.8096 8.61736 12.8305 8.49387 12.8052C8.37634 12.7814 8.25434 12.7144 8.13086 12.6028L8.72745 11.2653C8.76316 11.1865 8.72745 11.0928 8.6486 11.0585C8.56975 11.0228 8.47602 11.0585 8.4418 11.1389L7.82289 12.5225C7.73363 12.582 7.628 12.6028 7.52534 12.5939C7.43459 12.585 7.34532 12.5523 7.27093 12.5017C7.19952 12.4526 7.14001 12.3856 7.11026 12.3083C7.07604 12.2235 7.07157 12.1223 7.11026 12.0092L7.15935 11.8917ZM6.37827 11.9869L6.79336 11.9586C6.74873 12.1268 6.76212 12.2815 6.81568 12.4169C6.87072 12.5552 6.96892 12.6698 7.08943 12.7531C7.20696 12.8334 7.34681 12.8855 7.49261 12.8989C7.63395 12.9123 7.77826 12.89 7.91067 12.8245C8.07879 12.9778 8.25286 13.07 8.42841 13.1072C8.60546 13.1429 8.78101 13.1206 8.95508 13.0462C9.13659 13.2218 9.33148 13.3274 9.54126 13.3571C9.75401 13.3884 9.9742 13.3408 10.2033 13.2143C10.2807 13.2664 10.361 13.3066 10.4443 13.3348C10.5619 13.375 10.6824 13.3884 10.8073 13.375C11.1064 13.3452 11.3013 13.2441 11.4515 13.0893C11.5959 12.9421 11.6866 12.7605 11.7893 12.5493L12.3725 11.3487L12.8857 11.313C12.9259 11.4602 12.9869 11.49 13.0702 11.5852C13.2577 11.795 13.4199 11.9051 13.7085 11.8887C14.128 11.8649 14.8719 11.92 15.1129 11.6016C15.2349 11.4394 15.3078 11.1865 15.3212 10.819C15.3212 10.8146 15.3212 10.8101 15.3227 10.8056L15.3569 7.92234C15.3822 7.60991 15.3153 7.39419 15.1814 7.25434C15.046 7.11151 14.8511 7.05646 14.619 7.06241C14.6116 7.06241 14.6056 7.06241 14.5997 7.06241L13.4154 7.14424V7.14573C13.1922 7.15763 13.0018 7.2097 12.8619 7.31385C12.7489 7.39716 12.673 7.51023 12.6388 7.65901L11.6732 7.72447C11.4188 7.57718 11.1837 7.4656 10.9279 7.40311C10.6764 7.3436 10.4101 7.33468 10.0977 7.39419L9.74508 7.03117C9.73913 7.02373 9.73318 7.01778 9.72425 7.01183C9.62606 6.93 9.51745 6.86603 9.4029 6.81545C9.28239 6.76189 9.15444 6.72469 9.02203 6.6994C8.81225 6.66072 8.59355 6.65477 8.38229 6.67262C8.14276 6.69345 7.91216 6.74552 7.71429 6.81098C7.33639 6.93893 7.0195 7.19483 6.71302 7.44328C6.64458 7.49833 6.57615 7.55486 6.49432 7.61586C6.49135 7.61735 6.48837 7.62033 6.48539 7.62181L6.03907 7.96697C6.01377 7.93573 5.98402 7.90746 5.95129 7.88217C5.80846 7.77059 5.61357 7.72447 5.3666 7.74083V7.73935L4.27607 7.81373C4.2716 7.81373 4.26714 7.81373 4.26416 7.81522C3.98446 7.83308 3.7613 7.90002 3.61252 8.03244C3.44738 8.17972 3.37895 8.39099 3.43399 8.68259C3.43399 8.68556 3.43548 8.68705 3.43548 8.69003L3.93834 11.7132C3.97851 11.9839 4.06629 12.1922 4.20465 12.3306C4.35194 12.4794 4.54684 12.5433 4.7953 12.5151L5.76383 12.4481H5.76532C5.93343 12.4451 6.07328 12.3901 6.18635 12.2859C6.26372 12.2116 6.32918 12.1104 6.37827 11.9869ZM14.1652 10.2656C14.0492 10.273 13.9614 10.3742 13.9688 10.4917C13.9763 10.6078 14.0774 10.697 14.195 10.6881C14.311 10.6807 14.3988 10.5795 14.3914 10.4634C14.3839 10.3474 14.2828 10.2566 14.1652 10.2656ZM4.98275 10.8934C4.86671 10.9008 4.77893 11.002 4.78637 11.1181C4.79381 11.2341 4.89498 11.3234 5.01251 11.3144C5.12856 11.307 5.21782 11.2058 5.20889 11.0898C5.20146 10.9737 5.10029 10.886 4.98275 10.8934ZM13.039 9.43986L12.9319 7.88663C12.9259 7.80481 12.978 7.70215 13.0435 7.65306C13.1297 7.58908 13.2636 7.55635 13.4303 7.54742L14.619 7.46709C14.7276 7.45965 14.8764 7.48048 14.9552 7.5623C15.0281 7.63818 15.0623 7.77654 15.0445 7.99524C15.0445 7.99971 15.0445 8.00417 15.0445 8.00863L15.0103 10.7089V10.7134C14.9999 11.0124 14.9478 11.2073 14.8645 11.3189C14.7901 11.4186 13.524 11.6224 13.3053 11.3754C13.219 11.2772 13.1684 11.1195 13.1491 10.9113H13.1506L13.0435 9.43688L13.039 9.43986ZM2.61572 4.46627L6.21908 5.11196L5.47223 4.05267C6.61037 2.83866 7.87645 2.40274 9.38951 2.85353C7.7857 0.865883 5.65374 0.862908 3.98595 1.93707L3.22571 0.855469L2.61572 4.46627ZM12.6998 14.4581L13.4466 15.5174C12.3085 16.7314 11.0424 17.1673 9.52936 16.7165C11.1347 18.7027 13.2666 18.7056 14.9344 17.6315L15.6961 18.7131L16.3046 15.1038L12.6998 14.4581ZM16.6662 12.9867C16.5323 13.2634 16.6483 13.5952 16.925 13.7276C17.2017 13.8615 17.5335 13.7454 17.6659 13.4687C17.9456 12.8885 18.1628 12.2726 18.3086 11.6269C18.4515 10.9975 18.5273 10.3489 18.5273 9.68683C18.5273 7.50726 17.7269 5.51217 16.4028 3.98126C15.0623 2.42952 13.1848 1.35536 11.0588 1.0459C10.7553 1.00276 10.4741 1.21402 10.4309 1.51752C10.3878 1.82103 10.5991 2.10221 10.9026 2.14536C12.7563 2.41464 14.3943 3.35193 15.5652 4.7058C16.7167 6.04181 17.4145 7.781 17.4145 9.68683C17.4145 10.2745 17.349 10.8428 17.227 11.3844C17.0991 11.9423 16.9101 12.4794 16.6662 12.9867Z" fill="#6FCF97"/>
</g>
<defs>
<clipPath id="clip0_173_47597">
<rect width="18.2816" height="18.1433" fill="white" transform="matrix(-1 0 0 1 18.5312 0.857422)"/>
</clipPath>
</defs>
</svg>
