<svg width="23" height="24" viewBox="0 0 23 24" fill="none" xmlns="http://www.w3.org/2000/svg">
<path d="M19.194 17.4149H16.6448L14.2178 14.9879V9.59513L13.5069 8.88425H11.3743V6.0407H12.0852L12.796 5.32982V2.48628L12.0852 1.77539H9.24162L8.53073 2.48628V5.32982L9.24162 6.0407H9.9525V8.88425H7.81985L7.10896 9.59513V14.9879L4.682 17.4149H2.13276L1.42188 18.1258V20.9693L2.13276 21.6802H4.9763L5.68719 20.9693V18.4201L8.11415 15.9931H13.2126L15.6396 18.4201V20.9693L16.3505 21.6802H19.194L19.9049 20.9693V18.1258L19.194 17.4149ZM9.9525 3.19716H11.3743V4.61893H9.9525V3.19716ZM8.53073 10.306H12.796V14.5713H8.53073V10.306ZM4.26542 20.2584H2.84365V18.8366H4.26542V20.2584ZM18.4831 20.2584H17.0614V18.8366H18.4831V20.2584Z" fill="white"/>
</svg>
