<svg width="48" height="48" viewBox="0 0 48 48" fill="none" xmlns="http://www.w3.org/2000/svg">
<path d="M1.72643 23.1735L12.1694 5.298C12.3104 5.05533 12.5126 4.85391 12.7558 4.71387C12.9991 4.57383 13.2748 4.50009 13.5554 4.5H34.4474C34.7278 4.50035 35.0032 4.57422 35.2462 4.71424C35.4891 4.85427 35.6911 5.05555 35.8319 5.298L46.2764 23.175C46.4228 23.4258 46.5 23.7111 46.5 24.0015C46.5 24.2919 46.4228 24.5772 46.2764 24.828L35.8304 42.7035C35.6896 42.946 35.4876 43.1472 35.2447 43.2873C35.0017 43.4273 34.7263 43.5011 34.4459 43.5015H13.5539C13.2735 43.5011 12.9981 43.4273 12.7552 43.2873C12.5123 43.1472 12.3103 42.946 12.1694 42.7035L1.72643 24.825C1.58001 24.5742 1.50286 24.2889 1.50286 23.9985C1.50286 23.7081 1.58001 23.4228 1.72643 23.172V23.1735ZM25.6874 12H22.3124V28.5H25.6874V12ZM24.0014 37.5C24.4464 37.5 24.8815 37.368 25.2515 37.1208C25.6215 36.8736 25.9099 36.5222 26.0802 36.111C26.2505 35.6999 26.295 35.2475 26.2082 34.811C26.1214 34.3746 25.9071 33.9737 25.5924 33.659C25.2778 33.3443 24.8768 33.13 24.4404 33.0432C24.0039 32.9564 23.5515 33.001 23.1404 33.1713C22.7293 33.3416 22.3779 33.63 22.1306 34C21.8834 34.37 21.7514 34.805 21.7514 35.25C21.7514 35.8467 21.9885 36.419 22.4104 36.841C22.8324 37.2629 23.4047 37.5 24.0014 37.5V37.5Z" fill="#F6655A"/>
</svg>
